SplineFontDB: 3.0
FontName: GOST2930-62
FullName: GOST 2930-62
FamilyName: GOST 2930-62
Weight: Book
Copyright: 
Version: 1.00
ItalicAngle: 0
UnderlinePosition: -200
UnderlineWidth: 100
Ascent: 800
Descent: 200
InvalidEm: 0
sfntRevision: 0x00010000
LayerCount: 2
Layer: 0 0 "+BBcEMAQ0BD0EOAQ5 +BD8EOwQwBD0A" 1
Layer: 1 0 "+BB8ENQRABDUENAQ9BDgEOQAA +BD8EOwQwBD0A" 0
XUID: [1021 200 1631105240 8228]
StyleMap: 0x0000
FSType: 8
OS2Version: 1
OS2_WeightWidthSlopeOnly: 0
OS2_UseTypoMetrics: 0
CreationTime: 1115562651
ModificationTime: 1506155574
PfmFamily: 17
TTFWeight: 400
TTFWidth: 5
LineGap: 467
VLineGap: 0
Panose: 2 0 0 0 0 0 0 0 0 0
OS2TypoAscent: 800
OS2TypoAOffset: 0
OS2TypoDescent: -300
OS2TypoDOffset: 0
OS2TypoLinegap: 137
OS2WinAscent: 1200
OS2WinAOffset: 0
OS2WinDescent: 300
OS2WinDOffset: 0
HheadAscent: 1000
HheadAOffset: 0
HheadDescent: 0
HheadDOffset: 0
OS2SubXSize: 0
OS2SubYSize: 0
OS2SubXOff: 0
OS2SubYOff: 0
OS2SupXSize: 0
OS2SupYSize: 0
OS2SupXOff: 0
OS2SupYOff: 0
OS2StrikeYSize: 67
OS2StrikeYPos: 400
OS2Vendor: 'GOST'
OS2CodePages: 4000001f.d6030000
OS2UnicodeRanges: a00002af.500078fb.00000000.00000000
MarkAttachClasses: 1
DEI: 91125
ShortTable: maxp 16
  1
  0
  203
  72
  5
  0
  0
  2
  16
  47
  66
  0
  1036
  0
  0
  0
EndShort
LangName: 1033 "" "" "Regular"
Encoding: UnicodeBmp
UnicodeInterp: none
NameList: AGL For New Fonts
DisplaySize: -48
AntiAlias: 1
FitToEm: 0
WinInfo: 0 27 9
BeginPrivate: 0
EndPrivate
BeginChars: 65537 178

StartChar: .notdef
Encoding: 65536 -1 0
Width: 802
VWidth: 1365
Flags: HW
LayerCount: 2
Fore
SplineSet
0 0 m 1
 0 853 l 1
 682 853 l 1
 682 0 l 1
 0 0 l 1
21 21 m 1
 661 21 l 1
 661 832 l 1
 21 832 l 1
 21 21 l 1
EndSplineSet
EndChar

StartChar: quotedbl
Encoding: 34 34 1
Width: 324
VWidth: 1365
Flags: HW
LayerCount: 2
Fore
SplineSet
75 880 m 1
 76 879 l 1
 77 879 l 1
 33 720 l 1
 -21 720 l 1
 -21 720 l 1
 21 880 l 1
 75 880 l 1
129 880 m 1
 183 880 l 1
 183 879 l 1
 183 879 l 1
 141 720 l 1
 87 720 l 1
 86 720 l 1
 85 720 l 1
 129 880 l 1
EndSplineSet
EndChar

StartChar: percent
Encoding: 37 37 2
Width: 641
VWidth: 1365
Flags: HW
LayerCount: 2
Fore
SplineSet
522 800 m 1
 60 0 l 1
 0 0 l 1
 462 800 l 1
 522 800 l 1
120 800 m 256
 153 800 182 788 205 765 c 128
 228 742 240 713 240 680 c 256
 240 647 228 618 205 595 c 128
 182 572 153 560 120 560 c 256
 87 560 58 572 35 595 c 128
 12 618 0 647 0 680 c 256
 0 713 12 742 35 765 c 128
 58 788 87 800 120 800 c 256
120 748 m 0
 101 748 85 741 72 728 c 128
 59 715 52 699 52 680 c 0
 52 661 59 645 72 632 c 128
 85 619 101 612 120 612 c 256
 139 612 155 619 168 632 c 128
 181 645 188 661 188 680 c 0
 188 699 181 715 168 728 c 128
 155 741 139 748 120 748 c 0
360 240 m 256
 393 240 422 228 445 205 c 128
 468 182 480 153 480 120 c 256
 480 87 468 58 445 35 c 128
 422 12 393 0 360 0 c 256
 327 0 298 12 275 35 c 128
 252 58 240 87 240 120 c 256
 240 153 252 182 275 205 c 128
 298 228 327 240 360 240 c 256
360 189 m 0
 341 189 325 182 312 169 c 128
 299 156 292 140 292 121 c 0
 292 102 299 85 312 72 c 128
 325 59 341 52 360 52 c 256
 379 52 395 59 408 72 c 128
 421 85 428 102 428 121 c 0
 428 140 421 156 408 169 c 128
 395 182 379 189 360 189 c 0
EndSplineSet
EndChar

StartChar: quotesingle
Encoding: 39 39 3
Width: 217
VWidth: 1365
Flags: HW
LayerCount: 2
Fore
SplineSet
75 880 m 1
 76 879 l 1
 77 879 l 1
 33 720 l 1
 -21 720 l 1
 -21 720 l 1
 21 880 l 1
 75 880 l 1
EndSplineSet
EndChar

StartChar: asterisk
Encoding: 42 42 4
Width: 495
VWidth: 1365
Flags: HW
LayerCount: 2
Fore
SplineSet
39 588 m 1
 188 439 l 1
 337 588 l 1
 376 549 l 1
 227 400 l 1
 376 251 l 1
 337 212 l 1
 188 361 l 1
 39 212 l 1
 0 251 l 1
 149 400 l 1
 0 549 l 1
 39 588 l 1
EndSplineSet
EndChar

StartChar: plus
Encoding: 43 43 5
Width: 599
VWidth: 1365
Flags: HW
LayerCount: 2
Fore
SplineSet
266 640 m 1
 266 426 l 1
 480 426 l 1
 480 374 l 1
 266 374 l 1
 266 160 l 1
 214 160 l 1
 214 374 l 1
 0 374 l 1
 0 426 l 1
 214 426 l 1
 214 640 l 1
 266 640 l 1
EndSplineSet
EndChar

StartChar: comma
Encoding: 44 44 6
Width: 119
VWidth: 1365
Flags: HW
LayerCount: 2
Fore
SplineSet
0 104 m 256
 14 104 26 98 36 88 c 128
 46 78 52 66 52 52 c 0
 52 9 36 -28 6 -58 c 128
 -24 -88 -61 -104 -104 -104 c 1
 -75 -104 -50 -94 -30 -74 c 128
 -10 -54 0 -29 0 0 c 1
 -14 0 -26 6 -36 16 c 128
 -46 26 -52 38 -52 52 c 128
 -52 66 -46 78 -36 88 c 128
 -26 98 -14 104 0 104 c 256
EndSplineSet
EndChar

StartChar: hyphen
Encoding: 45 45 7
AltUni2: 0000ad.ffffffff.0
Width: 599
VWidth: 1365
Flags: HW
LayerCount: 2
Fore
SplineSet
0 426 m 1
 480 426 l 1
 480 374 l 1
 0 374 l 1
 0 426 l 1
EndSplineSet
EndChar

StartChar: period
Encoding: 46 46 8
Width: 119
VWidth: 1365
Flags: HW
LayerCount: 2
Fore
SplineSet
0 104 m 256
 9 104 18 102 26 98 c 128
 34 94 40 87 45 78 c 128
 50 69 52 61 52 52 c 256
 52 43 50 34 45 26 c 128
 40 18 34 12 26 7 c 128
 18 2 9 0 0 0 c 256
 -9 0 -18 2 -26 7 c 128
 -34 12 -40 18 -45 26 c 128
 -50 34 -52 43 -52 52 c 256
 -52 61 -50 69 -45 78 c 128
 -40 87 -34 94 -26 98 c 128
 -18 102 -9 104 0 104 c 256
EndSplineSet
EndChar

StartChar: slash
Encoding: 47 47 9
Width: 521
VWidth: 1365
Flags: HW
LayerCount: 2
Fore
SplineSet
452 800 m 1
 -10 0 l 1
 -70 0 l 1
 392 800 l 1
 452 800 l 1
EndSplineSet
EndChar

StartChar: zero
Encoding: 48 48 10
Width: 599
VWidth: 1365
Flags: HW
LayerCount: 2
Fore
SplineSet
240 800 m 256
 306 800 363 777 410 730 c 128
 457 683 480 626 480 560 c 2
 480 240 l 2
 480 174 457 117 410 70 c 128
 363 23 306 0 240 0 c 256
 174 0 117 23 70 70 c 128
 23 117 0 174 0 240 c 2
 0 560 l 2
 0 626 23 683 70 730 c 128
 117 777 174 800 240 800 c 256
100 560 m 2
 100 240 l 2
 100 201 114 168 141 141 c 128
 168 114 201 100 240 100 c 256
 279 100 312 114 339 141 c 128
 366 168 380 201 380 240 c 2
 380 560 l 2
 380 599 366 632 339 659 c 128
 312 686 279 700 240 700 c 256
 201 700 168 686 141 659 c 128
 114 632 100 599 100 560 c 2
EndSplineSet
EndChar

StartChar: one
Encoding: 49 49 11
Width: 326
VWidth: 1365
Flags: HW
LayerCount: 2
Fore
SplineSet
207 800 m 1
 207 0 l 1
 107 0 l 1
 107 605 l 1
 75 582 39 568 0 563 c 1
 0 664 l 1
 25 670 49 685 72 708 c 128
 95 731 107 761 107 800 c 1
 207 800 l 1
EndSplineSet
EndChar

StartChar: two
Encoding: 50 50 12
Width: 599
VWidth: 1365
Flags: HW
LayerCount: 2
Fore
SplineSet
240 800 m 256
 306 800 363 777 410 730 c 128
 457 683 480 626 480 560 c 256
 480 494 457 437 410 390 c 1
 399 380 l 1
 387 371 l 1
 215 237 l 2
 205 230 196 221 188 212 c 0
 156 180 132 143 117 100 c 1
 480 100 l 1
 480 0 l 1
 0 0 l 1
 0 111 39 205 117 283 c 0
 128 294 141 305 154 315 c 2
 326 449 l 2
 331 452 335 456 339 461 c 0
 366 488 380 521 380 560 c 128
 380 599 366 632 339 659 c 128
 312 686 279 700 240 700 c 256
 201 700 168 686 141 659 c 128
 114 632 100 597 100 556 c 1
 0 556 l 1
 0 625 23 683 70 730 c 128
 117 777 174 800 240 800 c 256
EndSplineSet
EndChar

StartChar: three
Encoding: 51 51 13
Width: 599
VWidth: 1365
Flags: HW
LayerCount: 2
Fore
SplineSet
430 800 m 1
 430 700 l 1
 291 575 l 1
 337 565 380 540 420 500 c 128
 460 460 480 406 480 340 c 2
 480 240 l 2
 480 174 457 117 410 70 c 128
 363 23 306 0 240 0 c 256
 174 0 117 23 70 70 c 128
 23 117 0 174 0 240 c 1
 100 240 l 1
 100 201 114 168 141 141 c 128
 168 114 201 100 240 100 c 256
 279 100 312 114 339 141 c 128
 366 168 380 201 380 240 c 2
 380 340 l 2
 380 379 366 412 339 439 c 128
 312 466 279 480 240 480 c 256
 201 480 168 466 141 439 c 2
 138 436 l 1
 90 527 l 1
 281 700 l 1
 0 700 l 1
 52 800 l 1
 430 800 l 1
EndSplineSet
EndChar

StartChar: four
Encoding: 52 52 14
Width: 599
VWidth: 1365
Flags: HW
LayerCount: 2
Fore
SplineSet
330 800 m 1
 430 800 l 1
 430 290 l 1
 480 290 l 1
 480 190 l 1
 430 190 l 1
 430 0 l 1
 330 0 l 1
 330 190 l 1
 0 190 l 1
 0 290 l 1
 330 800 l 1
119 290 m 1
 330 290 l 1
 330 616 l 1
 119 290 l 1
EndSplineSet
EndChar

StartChar: five
Encoding: 53 53 15
Width: 599
VWidth: 1365
Flags: HW
LayerCount: 2
Fore
SplineSet
0 800 m 1
 430 800 l 1
 430 700 l 1
 100 700 l 1
 100 555 l 1
 142 585 189 600 240 600 c 0
 306 600 363 577 410 530 c 128
 457 483 480 426 480 360 c 2
 480 240 l 2
 480 174 457 117 410 70 c 128
 363 23 306 0 240 0 c 256
 174 0 117 23 70 70 c 128
 23 117 0 174 0 240 c 1
 100 240 l 1
 100 201 114 168 141 141 c 128
 168 114 201 100 240 100 c 256
 279 100 312 114 339 141 c 128
 366 168 380 201 380 240 c 2
 380 360 l 2
 380 399 366 432 339 459 c 128
 312 486 279 500 240 500 c 0
 214 500 190 493 168 480 c 1
 0 480 l 1
 0 800 l 1
EndSplineSet
EndChar

StartChar: six
Encoding: 54 54 16
Width: 599
VWidth: 1365
Flags: HW
LayerCount: 2
Fore
SplineSet
240 800 m 256
 306 800 359 780 398 741 c 128
 437 702 462 660 473 616 c 1
 368 616 l 1
 361 632 348 650 328 670 c 128
 308 690 279 700 240 700 c 256
 201 700 168 686 141 659 c 128
 114 632 100 599 100 560 c 2
 100 455 l 1
 142 485 189 500 240 500 c 0
 306 500 363 477 410 430 c 128
 457 383 480 326 480 260 c 2
 480 240 l 2
 480 174 457 117 410 70 c 128
 363 23 306 0 240 0 c 256
 174 0 117 23 70 70 c 128
 23 117 0 174 0 240 c 2
 0 560 l 2
 0 626 23 683 70 730 c 128
 117 777 174 800 240 800 c 256
100 260 m 2
 100 240 l 2
 100 201 114 168 141 141 c 128
 168 114 201 100 240 100 c 256
 279 100 312 114 339 141 c 128
 366 168 380 201 380 240 c 2
 380 260 l 2
 380 299 366 332 339 359 c 128
 312 386 279 400 240 400 c 256
 201 400 168 386 141 359 c 128
 114 332 100 299 100 260 c 2
EndSplineSet
EndChar

StartChar: seven
Encoding: 55 55 17
Width: 599
VWidth: 1365
Flags: HW
LayerCount: 2
Fore
SplineSet
0 800 m 1
 480 800 l 1
 480 647 l 1
 446 622 383 563 290 470 c 128
 197 377 150 221 150 0 c 1
 50 0 l 1
 50 249 99 423 198 522 c 128
 297 621 359 680 384 700 c 1
 0 700 l 1
 0 800 l 1
EndSplineSet
EndChar

StartChar: eight
Encoding: 56 56 18
Width: 599
VWidth: 1365
Flags: HW
LayerCount: 2
Fore
SplineSet
480 560 m 0
 480 499 460 446 419 400 c 1
 460 355 480 301 480 240 c 0
 480 174 457 117 410 70 c 128
 363 23 305 0 238 0 c 0
 173 0 117 23 70 70 c 128
 23 117 0 174 0 240 c 0
 0 301 20 355 61 400 c 1
 20 446 0 499 0 560 c 0
 0 626 23 683 70 730 c 128
 117 777 175 800 242 800 c 0
 307 800 363 777 410 730 c 128
 457 683 480 626 480 560 c 0
141 141 m 128
 168 114 201 100 240 100 c 128
 279 100 312 114 339 141 c 128
 366 168 380 201 380 240 c 128
 380 279 366 312 339 339 c 128
 312 366 279 380 240 380 c 128
 201 380 168 366 141 339 c 128
 114 312 100 279 100 240 c 128
 100 201 114 168 141 141 c 128
141 461 m 128
 168 434 201 420 240 420 c 128
 279 420 312 434 339 461 c 128
 366 488 380 521 380 560 c 128
 380 599 366 632 339 659 c 128
 312 686 279 700 240 700 c 128
 201 700 168 686 141 659 c 128
 114 632 100 599 100 560 c 128
 100 521 114 488 141 461 c 128
EndSplineSet
EndChar

StartChar: nine
Encoding: 57 57 19
Width: 599
VWidth: 1365
Flags: HW
LayerCount: 2
Fore
SplineSet
240 0 m 256
 174 0 121 20 82 59 c 128
 43 98 18 140 7 184 c 1
 112 184 l 1
 119 168 132 150 152 130 c 128
 172 110 201 100 240 100 c 256
 279 100 312 114 339 141 c 128
 366 168 380 201 380 240 c 2
 380 345 l 1
 338 315 291 300 240 300 c 0
 174 300 117 323 70 370 c 128
 23 417 0 474 0 540 c 2
 0 560 l 2
 0 626 23 683 70 730 c 128
 117 777 174 800 240 800 c 256
 306 800 363 777 410 730 c 128
 457 683 480 626 480 560 c 2
 480 240 l 2
 480 174 457 117 410 70 c 128
 363 23 306 0 240 0 c 256
380 540 m 2
 380 560 l 2
 380 599 366 632 339 659 c 128
 312 686 279 700 240 700 c 256
 201 700 168 686 141 659 c 128
 114 632 100 599 100 560 c 2
 100 540 l 2
 100 501 114 468 141 441 c 128
 168 414 201 400 240 400 c 256
 279 400 312 414 339 441 c 128
 366 468 380 501 380 540 c 2
EndSplineSet
EndChar

StartChar: colon
Encoding: 58 58 20
Width: 119
VWidth: 1365
Flags: HW
LayerCount: 2
Fore
SplineSet
0 800 m 256
 9 800 18 798 26 793 c 128
 34 788 40 782 45 774 c 128
 50 766 52 757 52 748 c 256
 52 739 50 730 45 722 c 128
 40 714 34 708 26 703 c 128
 18 698 9 696 0 696 c 256
 -9 696 -18 698 -26 703 c 128
 -34 708 -40 714 -45 722 c 128
 -50 730 -52 739 -52 748 c 256
 -52 757 -50 766 -45 774 c 128
 -40 782 -34 788 -26 793 c 128
 -18 798 -9 800 0 800 c 256
0 104 m 256
 9 104 18 102 26 98 c 128
 34 94 40 87 45 78 c 128
 50 69 52 61 52 52 c 256
 52 43 50 34 45 26 c 128
 40 18 34 12 26 7 c 128
 18 2 9 0 0 0 c 256
 -9 0 -18 2 -26 7 c 128
 -34 12 -40 18 -45 26 c 128
 -50 34 -52 43 -52 52 c 256
 -52 61 -50 69 -45 78 c 128
 -40 87 -34 94 -26 98 c 128
 -18 102 -9 104 0 104 c 256
EndSplineSet
EndChar

StartChar: semicolon
Encoding: 59 59 21
AltUni2: 00037e.ffffffff.0
Width: 119
VWidth: 1365
Flags: HW
LayerCount: 2
Fore
SplineSet
0 104 m 256
 14 104 26 98 36 88 c 128
 46 78 52 66 52 52 c 0
 52 9 36 -28 6 -58 c 128
 -24 -88 -61 -104 -104 -104 c 1
 -75 -104 -50 -94 -30 -74 c 128
 -10 -54 0 -29 0 0 c 1
 -14 0 -26 6 -36 16 c 128
 -46 26 -52 38 -52 52 c 128
 -52 66 -46 78 -36 88 c 128
 -26 98 -14 104 0 104 c 256
0 800 m 256
 9 800 18 798 26 793 c 128
 34 788 40 782 45 774 c 128
 50 766 52 757 52 748 c 256
 52 739 50 730 45 722 c 128
 40 714 34 708 26 703 c 128
 18 698 9 696 0 696 c 256
 -9 696 -18 698 -26 703 c 128
 -34 708 -40 714 -45 722 c 128
 -50 730 -52 739 -52 748 c 256
 -52 757 -50 766 -45 774 c 128
 -40 782 -34 788 -26 793 c 128
 -18 798 -9 800 0 800 c 256
EndSplineSet
EndChar

StartChar: less
Encoding: 60 60 22
Width: 599
VWidth: 1365
Flags: HW
LayerCount: 2
Fore
SplineSet
0 400 m 1
 480 640 l 1
 480 582 l 1
 116 400 l 1
 480 218 l 1
 480 160 l 1
 0 400 l 1
EndSplineSet
EndChar

StartChar: equal
Encoding: 61 61 23
Width: 599
VWidth: 1365
Flags: HW
LayerCount: 2
Fore
SplineSet
0 348 m 1
 480 348 l 1
 480 296 l 1
 0 296 l 1
 0 348 l 1
0 504 m 1
 480 504 l 1
 480 452 l 1
 0 452 l 1
 0 504 l 1
EndSplineSet
EndChar

StartChar: greater
Encoding: 62 62 24
Width: 599
VWidth: 1365
Flags: HW
LayerCount: 2
Fore
SplineSet
480 400 m 1
 0 160 l 1
 0 218 l 1
 364 400 l 1
 0 582 l 1
 0 640 l 1
 480 400 l 1
EndSplineSet
EndChar

StartChar: A
Encoding: 65 65 25
Width: 599
VWidth: 1365
Flags: HW
LayerCount: 2
Fore
SplineSet
190 800 m 1
 290 800 l 1
 480 0 l 1
 377 0 l 1
 337 167 l 1
 143 167 l 1
 103 0 l 1
 0 0 l 1
 190 800 l 1
166 267 m 1
 314 267 l 1
 240 578 l 1
 166 267 l 1
EndSplineSet
EndChar

StartChar: B
Encoding: 66 66 26
Width: 599
VWidth: 1365
Flags: HW
LayerCount: 2
Fore
SplineSet
0 800 m 1
 280 800 l 2
 335 800 383 780 422 741 c 128
 461 702 480 655 480 600 c 256
 480 545 454 491 401 438 c 1
 454 385 480 326 480 260 c 2
 480 240 l 2
 480 174 457 117 410 70 c 128
 363 23 306 0 240 0 c 2
 0 0 l 1
 0 800 l 1
100 700 m 1
 100 500 l 1
 280 500 l 2
 307 500 330 510 350 530 c 128
 370 550 380 573 380 600 c 128
 380 627 370 650 350 670 c 128
 330 690 307 700 280 700 c 2
 100 700 l 1
100 400 m 1
 100 100 l 1
 240 100 l 2
 279 100 312 114 339 141 c 128
 366 168 380 201 380 240 c 2
 380 260 l 2
 380 299 366 332 339 359 c 128
 312 386 279 400 240 400 c 2
 100 400 l 1
EndSplineSet
EndChar

StartChar: C
Encoding: 67 67 27
Width: 599
VWidth: 1365
Flags: HW
LayerCount: 2
Fore
SplineSet
480 240 m 1
 480 174 457 117 410 70 c 128
 363 23 306 0 240 0 c 256
 174 0 117 23 70 70 c 128
 23 117 0 174 0 240 c 2
 0 560 l 2
 0 626 23 683 70 730 c 128
 117 777 174 800 240 800 c 256
 306 800 363 777 410 730 c 128
 457 683 480 626 480 560 c 1
 380 560 l 1
 380 599 366 632 339 659 c 128
 312 686 279 700 240 700 c 256
 201 700 168 686 141 659 c 128
 114 632 100 599 100 560 c 2
 100 240 l 2
 100 201 114 168 141 141 c 128
 168 114 201 100 240 100 c 256
 279 100 312 114 339 141 c 128
 366 168 380 201 380 240 c 1
 480 240 l 1
EndSplineSet
EndChar

StartChar: D
Encoding: 68 68 28
Width: 599
VWidth: 1365
Flags: HW
LayerCount: 2
Fore
SplineSet
240 0 m 2
 0 0 l 1
 0 800 l 1
 240 800 l 2
 306 800 363 777 410 730 c 128
 457 683 480 626 480 560 c 2
 480 240 l 2
 480 174 457 117 410 70 c 128
 363 23 306 0 240 0 c 2
240 700 m 2
 100 700 l 1
 100 100 l 1
 240 100 l 2
 279 100 312 114 339 141 c 128
 366 168 380 201 380 240 c 2
 380 560 l 2
 380 599 366 632 339 659 c 128
 312 686 279 700 240 700 c 2
EndSplineSet
EndChar

StartChar: E
Encoding: 69 69 29
Width: 599
VWidth: 1365
Flags: HW
LayerCount: 2
Fore
SplineSet
430 800 m 1
 430 700 l 1
 100 700 l 1
 100 500 l 1
 380 500 l 1
 380 400 l 1
 100 400 l 1
 100 100 l 1
 480 100 l 1
 480 0 l 1
 0 0 l 1
 0 800 l 1
 430 800 l 1
EndSplineSet
EndChar

StartChar: F
Encoding: 70 70 30
Width: 599
VWidth: 1365
Flags: HW
LayerCount: 2
Fore
SplineSet
100 400 m 1
 100 0 l 1
 0 0 l 1
 0 800 l 1
 480 800 l 1
 480 700 l 1
 100 700 l 1
 100 500 l 1
 320 500 l 1
 320 400 l 1
 100 400 l 1
EndSplineSet
EndChar

StartChar: G
Encoding: 71 71 31
Width: 599
VWidth: 1365
Flags: HW
LayerCount: 2
Fore
SplineSet
480 240 m 2
 480 174 457 117 410 70 c 128
 363 23 306 0 240 0 c 256
 174 0 117 23 70 70 c 128
 23 117 0 174 0 240 c 2
 0 560 l 2
 0 626 23 683 70 730 c 128
 117 777 174 800 240 800 c 256
 306 800 363 777 410 730 c 128
 457 683 480 626 480 560 c 1
 380 560 l 1
 380 599 366 632 339 659 c 128
 312 686 279 700 240 700 c 256
 201 700 168 686 141 659 c 128
 114 632 100 599 100 560 c 2
 100 240 l 2
 100 201 114 168 141 141 c 128
 168 114 201 100 240 100 c 256
 279 100 312 114 339 141 c 128
 366 168 380 201 380 240 c 2
 380 300 l 1
 296 300 l 1
 296 400 l 1
 480 400 l 1
 480 240 l 2
EndSplineSet
EndChar

StartChar: H
Encoding: 72 72 32
Width: 599
VWidth: 1365
Flags: HW
LayerCount: 2
Fore
SplineSet
100 800 m 1
 100 500 l 1
 380 500 l 1
 380 800 l 1
 480 800 l 1
 480 0 l 1
 380 0 l 1
 380 400 l 1
 100 400 l 1
 100 0 l 1
 0 0 l 1
 0 800 l 1
 100 800 l 1
EndSplineSet
EndChar

StartChar: I
Encoding: 73 73 33
Width: 219
VWidth: 1365
Flags: HW
LayerCount: 2
Fore
SplineSet
0 800 m 1
 100 800 l 1
 100 0 l 1
 0 0 l 1
 0 800 l 1
EndSplineSet
EndChar

StartChar: J
Encoding: 74 74 34
Width: 359
VWidth: 1365
Flags: HW
LayerCount: 2
Fore
SplineSet
240 800 m 1
 240 144 l 2
 240 105 226 70 198 42 c 128
 170 14 135 0 96 0 c 2
 0 0 l 1
 0 100 l 1
 96 100 l 2
 108 100 118 104 127 112 c 128
 136 120 140 131 140 144 c 2
 140 700 l 1
 0 700 l 1
 0 800 l 1
 240 800 l 1
EndSplineSet
EndChar

StartChar: K
Encoding: 75 75 35
Width: 599
VWidth: 1365
Flags: HW
LayerCount: 2
Fore
SplineSet
100 800 m 1
 100 439 l 1
 357 800 l 1
 480 800 l 1
 290 533 l 1
 480 0 l 1
 374 0 l 1
 219 434 l 1
 100 267 l 1
 100 0 l 1
 0 0 l 1
 0 800 l 1
 100 800 l 1
EndSplineSet
EndChar

StartChar: L
Encoding: 76 76 36
Width: 599
VWidth: 1365
Flags: HW
LayerCount: 2
Fore
SplineSet
0 0 m 1
 0 800 l 1
 100 800 l 1
 100 100 l 1
 480 100 l 1
 480 0 l 1
 0 0 l 1
EndSplineSet
EndChar

StartChar: M
Encoding: 77 77 37
Width: 839
VWidth: 1365
Flags: HW
LayerCount: 2
Fore
SplineSet
100 800 m 1
 360 400 l 1
 620 800 l 1
 720 800 l 1
 720 0 l 1
 620 0 l 1
 620 617 l 1
 360 217 l 1
 100 617 l 1
 100 0 l 1
 0 0 l 1
 0 800 l 1
 100 800 l 1
EndSplineSet
EndChar

StartChar: N
Encoding: 78 78 38
Width: 599
VWidth: 1365
Flags: HW
LayerCount: 2
Fore
SplineSet
480 800 m 1
 480 1 l 1
 370 0 l 1
 100 584 l 1
 100 0 l 1
 0 0 l 1
 0 800 l 1
 103 800 l 1
 380 216 l 1
 380 800 l 1
 480 800 l 1
EndSplineSet
EndChar

StartChar: O
Encoding: 79 79 39
Width: 599
VWidth: 1365
Flags: HW
LayerCount: 2
Fore
SplineSet
240 800 m 256
 306 800 363 777 410 730 c 128
 457 683 480 626 480 560 c 2
 480 240 l 2
 480 174 457 117 410 70 c 128
 363 23 306 0 240 0 c 256
 174 0 117 23 70 70 c 128
 23 117 0 174 0 240 c 2
 0 560 l 2
 0 626 23 683 70 730 c 128
 117 777 174 800 240 800 c 256
100 560 m 2
 100 240 l 2
 100 201 114 168 141 141 c 128
 168 114 201 100 240 100 c 256
 279 100 312 114 339 141 c 128
 366 168 380 201 380 240 c 2
 380 560 l 2
 380 599 366 632 339 659 c 128
 312 686 279 700 240 700 c 256
 201 700 168 686 141 659 c 128
 114 632 100 599 100 560 c 2
EndSplineSet
EndChar

StartChar: P
Encoding: 80 80 40
Width: 599
VWidth: 1365
Flags: HW
LayerCount: 2
Fore
SplineSet
240 800 m 2
 306 800 363 777 410 730 c 128
 457 683 480 626 480 560 c 2
 480 540 l 2
 480 474 457 417 410 370 c 128
 363 323 306 300 240 300 c 2
 100 300 l 1
 100 0 l 1
 0 0 l 1
 0 800 l 1
 240 800 l 2
100 700 m 1
 100 400 l 1
 240 400 l 2
 279 400 312 414 339 441 c 128
 366 468 380 501 380 540 c 2
 380 560 l 2
 380 599 366 632 339 659 c 128
 312 686 279 700 240 700 c 2
 100 700 l 1
EndSplineSet
EndChar

StartChar: Q
Encoding: 81 81 41
Width: 669
VWidth: 1365
Flags: HW
LayerCount: 2
Fore
SplineSet
380 327 m 1
 380 560 l 2
 380 599 366 632 339 659 c 128
 312 686 279 700 240 700 c 256
 201 700 168 686 141 659 c 128
 114 632 100 599 100 560 c 2
 100 240 l 2
 100 201 114 168 141 141 c 128
 168 114 201 100 240 100 c 256
 279 100 312 114 339 141 c 0
 360 162 372 186 377 213 c 1
 310 251 l 1
 360 338 l 1
 380 327 l 1
467 161 m 1
 456 128 437 98 410 71 c 0
 363 24 306 0 240 0 c 256
 174 0 117 23 70 70 c 128
 23 117 0 174 0 240 c 2
 0 560 l 2
 0 626 23 683 70 730 c 128
 117 777 174 800 240 800 c 256
 306 800 363 777 410 730 c 128
 457 683 480 626 480 560 c 2
 480 269 l 1
 550 229 l 1
 500 142 l 1
 467 161 l 1
EndSplineSet
EndChar

StartChar: R
Encoding: 82 82 42
Width: 599
VWidth: 1365
Flags: HW
LayerCount: 2
Fore
SplineSet
100 700 m 1
 100 400 l 1
 240 400 l 2
 279 400 312 414 339 441 c 128
 366 468 380 501 380 540 c 2
 380 560 l 2
 380 599 366 632 339 659 c 128
 312 686 279 700 240 700 c 2
 100 700 l 1
480 0 m 1
 371 0 l 1
 237 300 l 1
 100 300 l 1
 100 0 l 1
 0 0 l 1
 0 800 l 1
 240 800 l 2
 306 800 363 777 410 730 c 128
 457 683 480 626 480 560 c 2
 480 540 l 2
 480 474 457 418 410 371 c 0
 388 349 364 332 337 320 c 1
 480 0 l 1
EndSplineSet
EndChar

StartChar: S
Encoding: 83 83 43
Width: 599
VWidth: 1365
Flags: HW
LayerCount: 2
Fore
SplineSet
240 800 m 256
 306 800 363 777 410 730 c 128
 457 683 480 627 480 560 c 1
 380 560 l 1
 380 599 366 632 339 659 c 128
 312 686 279 700 240 700 c 256
 201 700 168 686 141 659 c 128
 114 632 100 599 100 560 c 0
 100 533 109 510 126 493 c 128
 143 476 161 465 182 462 c 2
 317 437 l 2
 358 430 395 408 429 374 c 128
 463 340 480 295 480 240 c 0
 480 174 457 117 410 70 c 128
 363 23 306 0 240 0 c 256
 174 0 117 23 70 70 c 128
 23 117 0 174 0 240 c 1
 100 240 l 1
 100 201 114 168 141 141 c 128
 168 114 202 101 241 104 c 1
 279 101 312 114 339 141 c 128
 366 168 380 201 380 240 c 0
 380 267 371 290 354 307 c 128
 337 324 319 335 298 338 c 2
 163 363 l 2
 122 370 85 392 51 426 c 128
 17 460 0 505 0 560 c 0
 0 626 23 683 70 730 c 128
 117 777 174 800 240 800 c 256
EndSplineSet
EndChar

StartChar: T
Encoding: 84 84 44
Width: 599
VWidth: 1365
Flags: HW
LayerCount: 2
Fore
SplineSet
480 800 m 1
 480 700 l 1
 290 700 l 1
 290 0 l 1
 190 0 l 1
 190 700 l 1
 0 700 l 1
 0 800 l 1
 480 800 l 1
EndSplineSet
EndChar

StartChar: U
Encoding: 85 85 45
Width: 599
VWidth: 1365
Flags: HW
LayerCount: 2
Fore
SplineSet
100 800 m 1
 100 240 l 2
 100 201 114 168 141 141 c 128
 168 114 201 100 240 100 c 256
 279 100 312 114 339 141 c 128
 366 168 380 201 380 240 c 2
 380 800 l 1
 480 800 l 1
 480 240 l 2
 480 174 457 117 410 70 c 128
 363 23 306 0 240 0 c 256
 174 0 117 23 70 70 c 128
 23 117 0 174 0 240 c 2
 0 800 l 1
 100 800 l 1
EndSplineSet
EndChar

StartChar: V
Encoding: 86 86 46
Width: 599
VWidth: 1365
Flags: HW
LayerCount: 2
Fore
SplineSet
103 800 m 1
 240 222 l 1
 377 800 l 1
 480 800 l 1
 290 0 l 1
 190 0 l 1
 0 800 l 1
 103 800 l 1
EndSplineSet
EndChar

StartChar: W
Encoding: 87 87 47
Width: 839
VWidth: 1365
Flags: HW
LayerCount: 2
Fore
SplineSet
101 800 m 1
 200 142 l 1
 283 700 l 1
 437 700 l 1
 520 142 l 1
 619 800 l 1
 720 800 l 1
 600 0 l 1
 441 0 l 1
 360 516 l 1
 279 0 l 1
 120 0 l 1
 0 800 l 1
 101 800 l 1
EndSplineSet
EndChar

StartChar: X
Encoding: 88 88 48
Width: 599
VWidth: 1365
Flags: HW
LayerCount: 2
Fore
SplineSet
103 800 m 1
 240 519 l 1
 370 800 l 1
 480 800 l 1
 295 400 l 1
 480 0 l 1
 370 0 l 1
 240 281 l 1
 103 0 l 1
 0 0 l 1
 185 400 l 1
 2 800 l 1
 103 800 l 1
EndSplineSet
EndChar

StartChar: Y
Encoding: 89 89 49
Width: 599
VWidth: 1365
Flags: HW
LayerCount: 2
Fore
SplineSet
106 800 m 1
 240 423 l 1
 374 800 l 1
 480 800 l 1
 290 267 l 1
 290 0 l 1
 190 0 l 1
 190 267 l 1
 0 800 l 1
 106 800 l 1
EndSplineSet
EndChar

StartChar: Z
Encoding: 90 90 50
Width: 599
VWidth: 1365
Flags: HW
LayerCount: 2
Fore
SplineSet
480 800 m 1
 480 661 l 1
 100 100 l 1
 480 100 l 1
 480 0 l 1
 0 0 l 1
 0 139 l 1
 385 700 l 1
 0 700 l 1
 0 800 l 1
 480 800 l 1
EndSplineSet
EndChar

StartChar: a
Encoding: 97 97 51
Width: 451
VWidth: 1365
Flags: HW
LayerCount: 2
Fore
SplineSet
165 533 m 0
 210 533 249 517 281 485 c 128
 313 453 329 414 329 369 c 2
 329 135 l 2
 329 117 332 105 338 99 c 128
 344 93 346 90 347 89 c 2
 347 0 l 1
 324 7 308 15 298 25 c 128
 288 35 282 42 279 46 c 1
 247 15 208 0 163 0 c 256
 118 0 80 16 48 48 c 128
 16 80 0 119 0 165 c 0
 0 210 16 249 48 281 c 128
 80 313 119 329 165 329 c 2
 249 329 l 1
 249 369 l 2
 249 392 241 412 224 428 c 128
 207 444 187 453 164 453 c 128
 141 453 120 444 104 428 c 128
 88 412 80 392 80 369 c 1
 0 369 l 1
 0 415 16 454 48 486 c 128
 80 518 119 533 165 533 c 0
104 224 m 128
 88 207 80 187 80 164 c 128
 80 141 88 120 104 104 c 128
 120 88 141 80 164 80 c 128
 187 80 207 88 224 104 c 128
 241 120 249 141 249 165 c 2
 249 249 l 1
 159 249 l 2
 139 249 120 241 104 224 c 128
EndSplineSet
EndChar

StartChar: b
Encoding: 98 98 52
Width: 432
VWidth: 1365
Flags: HW
LayerCount: 2
Fore
SplineSet
80 0 m 1
 0 0 l 1
 0 800 l 1
 80 800 l 1
 80 511 l 1
 105 526 133 534 164 533 c 0
 210 533 249 517 281 485 c 128
 313 453 329 414 329 369 c 2
 329 165 l 2
 329 119 313 80 281 48 c 128
 249 16 210 0 164 0 c 0
 133 0 105 8 80 23 c 1
 80 0 l 1
105 105 m 256
 122 88 141 80 164 80 c 128
 187 80 207 88 224 104 c 128
 241 120 249 141 249 165 c 2
 249 369 l 2
 249 392 241 412 224 428 c 128
 207 444 187 453 164 453 c 128
 141 453 121 445 105 429 c 256
 88 412 80 392 80 369 c 2
 80 165 l 2
 80 142 88 122 105 105 c 256
EndSplineSet
EndChar

StartChar: c
Encoding: 99 99 53
Width: 432
VWidth: 1365
Flags: HW
LayerCount: 2
Fore
SplineSet
80 165 m 2
 80 142 88 122 104 105 c 128
 120 88 141 80 164 80 c 128
 187 80 207 88 224 104 c 128
 241 120 249 141 249 165 c 1
 329 165 l 1
 329 119 313 80 281 48 c 128
 249 16 210 0 164 0 c 0
 119 0 80 16 48 48 c 128
 16 80 0 119 0 165 c 2
 0 369 l 2
 0 415 16 454 48 486 c 128
 80 518 119 533 164 533 c 0
 210 533 249 517 281 485 c 128
 313 453 329 414 329 369 c 1
 249 369 l 1
 249 392 241 412 224 428 c 128
 207 444 187 453 164 453 c 128
 141 453 120 444 104 428 c 128
 88 412 80 392 80 369 c 2
 80 165 l 2
EndSplineSet
EndChar

StartChar: d
Encoding: 100 100 54
Width: 432
VWidth: 1365
Flags: HW
LayerCount: 2
Fore
SplineSet
249 23 m 1
 224 8 196 0 165 0 c 0
 119 0 80 16 48 48 c 128
 16 80 0 119 0 165 c 2
 0 369 l 2
 0 415 16 454 48 486 c 128
 80 518 119 533 165 533 c 0
 196 533 224 526 249 511 c 1
 249 800 l 1
 329 800 l 1
 329 0 l 1
 249 0 l 1
 249 23 l 1
249 165 m 2
 249 369 l 2
 249 392 241 412 224 429 c 256
 207 446 187 454 164 454 c 128
 141 454 120 444 104 428 c 128
 88 412 80 392 80 369 c 2
 80 165 l 2
 80 142 88 122 104 105 c 128
 120 88 141 80 164 80 c 128
 187 80 207 88 224 105 c 256
 241 122 249 142 249 165 c 2
EndSplineSet
EndChar

StartChar: e
Encoding: 101 101 55
Width: 432
VWidth: 1365
Flags: HW
LayerCount: 2
Fore
SplineSet
80 165 m 2
 80 142 88 122 104 105 c 128
 120 88 141 80 164 80 c 128
 187 80 207 88 224 104 c 128
 241 120 249 141 249 165 c 1
 329 165 l 1
 329 119 313 80 281 48 c 128
 249 16 210 0 164 0 c 0
 119 0 80 16 48 48 c 128
 16 80 0 119 0 165 c 2
 0 369 l 2
 0 415 16 454 48 486 c 128
 80 518 119 533 164 533 c 0
 210 533 249 517 281 485 c 128
 313 453 329 414 329 369 c 2
 329 227 l 1
 80 227 l 1
 80 165 l 2
249 369 m 2
 249 392 241 412 224 428 c 128
 207 444 187 453 164 453 c 128
 141 453 120 444 104 428 c 128
 88 412 80 392 80 369 c 2
 80 307 l 1
 249 307 l 1
 249 369 l 2
EndSplineSet
EndChar

StartChar: f
Encoding: 102 102 56
Width: 309
VWidth: 1365
Flags: HW
HStem: 720 80<160.017 199>
VStem: 63 80<664 702.983>
LayerCount: 2
Fore
SplineSet
205 453 m 1
 205 533 l 1
 143 533 l 1
 143 664 l 2
 143 679 149 693 160 704 c 0
 171 715 184 720 199 720 c 2
 205 720 l 1
 205 800 l 1
 199 800 l 2
 161 800 128 787 102 760 c 0
 76 733 63 701 63 664 c 2
 63 533 l 1
 0 533 l 1
 0 453 l 1
 63 453 l 1
 63 0 l 1
 143 0 l 1
 143 453 l 1
 205 453 l 1
EndSplineSet
EndChar

StartChar: g
Encoding: 103 103 57
Width: 432
VWidth: 1365
Flags: HW
LayerCount: 2
Fore
SplineSet
224 429 m 256
 207 446 187 454 164 454 c 128
 141 454 120 444 104 428 c 128
 88 412 80 392 80 369 c 2
 80 165 l 2
 80 142 88 122 104 105 c 128
 120 88 141 80 164 80 c 128
 187 80 207 88 224 105 c 256
 241 122 249 142 249 165 c 2
 249 369 l 2
 249 392 241 412 224 429 c 256
249 -131 m 2
 249 23 l 1
 224 8 196 0 165 0 c 0
 119 0 80 16 48 48 c 128
 16 80 0 119 0 165 c 2
 0 369 l 2
 0 415 16 454 48 486 c 128
 80 518 119 533 165 533 c 0
 196 533 224 526 249 511 c 1
 249 533 l 1
 329 533 l 1
 329 -131 l 2
 329 -168 316 -200 289 -227 c 128
 262 -254 230 -267 193 -267 c 2
 165 -267 l 1
 165 -187 l 1
 193 -187 l 2
 208 -187 221 -181 232 -170 c 128
 243 -159 249 -146 249 -131 c 2
EndSplineSet
EndChar

StartChar: h
Encoding: 104 104 58
Width: 432
VWidth: 1365
Flags: HW
LayerCount: 2
Fore
SplineSet
329 369 m 2
 329 0 l 1
 249 0 l 1
 249 369 l 2
 248 393 240 413 224 429 c 128
 208 445 187 453 163 453 c 0
 140 453 120 445 104 429 c 0
 90 415 82 399 80 381 c 1
 80 0 l 1
 0 0 l 1
 0 800 l 1
 80 800 l 1
 80 511 l 1
 105 526 132 534 163 533 c 0
 209 533 248 518 280 486 c 128
 312 454 329 415 329 369 c 2
EndSplineSet
EndChar

StartChar: i
Encoding: 105 105 59
Width: 183
VWidth: 1365
Flags: HW
HStem: 0 21G<0 80> 493 80<4.67419 75.6373>
VStem: 0 80<0 369 497.363 568.751>
LayerCount: 2
Fore
SplineSet
80 369 m 1
 80 0 l 1
 0 0 l 1
 0 369 l 1
 80 369 l 1
40 573 m 256
 47 573 54 571 60 568 c 0
 66 565 70 560 74 554 c 0
 78 548 80 540 80 533 c 256
 80 526 78 519 74 513 c 0
 70 507 66 502 60 498 c 0
 54 494 47 493 40 493 c 256
 33 493 26 494 20 498 c 0
 14 502 10 508 6 514 c 0
 2 520 0 526 0 533 c 256
 0 540 2 548 6 554 c 0
 10 560 14 565 20 568 c 0
 26 571 33 573 40 573 c 256
EndSplineSet
EndChar

StartChar: j
Encoding: 106 106 60
Width: 246
VWidth: 1365
Flags: HW
LayerCount: 2
Fore
SplineSet
99 738 m 256
 106 738 112 736 119 733 c 128
 126 730 131 725 134 718 c 128
 137 711 139 705 139 698 c 256
 139 691 137 684 134 678 c 128
 131 672 126 668 120 664 c 128
 114 660 106 658 99 658 c 256
 92 658 85 660 79 664 c 128
 73 668 68 672 64 678 c 128
 60 684 59 691 59 698 c 256
 59 705 60 712 64 718 c 128
 68 724 74 730 80 733 c 128
 86 736 92 738 99 738 c 256
143 533 m 1
 63 533 l 1
 63 -131 l 2
 63 -146 57 -159 46 -170 c 128
 35 -181 22 -187 7 -187 c 2
 0 -187 l 1
 0 -267 l 1
 7 -267 l 2
 45 -267 78 -254 104 -227 c 128
 130 -200 143 -168 143 -131 c 2
 143 533 l 1
EndSplineSet
EndChar

StartChar: k
Encoding: 107 107 61
Width: 432
VWidth: 1365
Flags: HW
HStem: 0 21G<0 80 239.336 329> 513 20G<219.638 329> 780 20G<0 80>
VStem: 0 80<0 160 304 800>
LayerCount: 2
Fore
SplineSet
80 800 m 1
 80 304 l 1
 233 533 l 1
 329 533 l 1
 222 373 l 1
 329 0 l 1
 245 0 l 1
 164 286 l 1
 80 160 l 1
 80 0 l 1
 0 0 l 1
 0 800 l 1
 80 800 l 1
EndSplineSet
EndChar

StartChar: l
Encoding: 108 108 62
Width: 246
VWidth: 1365
Flags: HW
HStem: 0 80<97.0172 136>
VStem: 0 80<97.0172 136>
LayerCount: 2
Fore
SplineSet
0 136 m 2
 0 98 14 66 40 40 c 0
 66 14 98 0 136 0 c 2
 143 0 l 1
 143 80 l 1
 136 80 l 2
 121 80 107 85 96 96 c 0
 85 107 80 121 80 136 c 2
 80 800 l 1
 0 800 l 1
 0 136 l 2
EndSplineSet
EndChar

StartChar: m
Encoding: 109 109 63
Width: 592
VWidth: 1365
Flags: HW
HStem: 0 21G<25 105 217 297 409 489> 453 80<119.396 202.162 311.064 394.204>
VStem: 0 66<495 513.887> 25 80<0 436.498> 217 80<0 435.983> 409 80<0 435.983>
LayerCount: 2
Fore
SplineSet
489 397 m 2xec
 489 0 l 1
 409 0 l 1
 409 397 l 2
 409 412 403 425 392 436 c 0
 381 447 368 453 353 453 c 0
 338 453 325 448 314 437 c 0
 303 426 297 413 297 397 c 2
 297 0 l 1
 217 0 l 1
 217 397 l 2
 217 412 211 425 200 436 c 0
 189 447 176 453 161 453 c 0
 146 453 133 448 122 437 c 0
 111 426 105 413 105 397 c 2
 105 0 l 1
 25 0 l 1
 25 401 l 2xdc
 25 416 19 429 8 440 c 0
 6 443 3 445 0 447 c 1
 0 533 l 1
 25 528 46 516 65 497 c 0
 66 496 66 496 66 495 c 0
 92 520 124 533 161 533 c 0
 199 533 231 520 257 494 c 1
 283 520 315 533 353 533 c 256
 391 533 424 520 450 494 c 0
 476 468 489 435 489 397 c 2xec
EndSplineSet
EndChar

StartChar: n
Encoding: 110 110 64
Width: 451
VWidth: 1365
Flags: HW
LayerCount: 2
Fore
SplineSet
51 499 m 0
 56 494 61 488 65 483 c 1
 66 484 66 484 67 485 c 0
 99 517 138 533 183 533 c 0
 228 533 267 517 299 485 c 128
 331 453 347 414 347 369 c 2
 347 0 l 1
 267 0 l 1
 267 369 l 2
 267 392 258 412 242 428 c 128
 226 444 206 453 183 453 c 128
 160 453 140 444 124 428 c 128
 108 412 99 392 99 369 c 2
 99 0 l 1
 19 0 l 1
 19 383 l 2
 19 404 13 421 0 436 c 1
 0 533 l 1
 19 526 36 514 51 499 c 0
EndSplineSet
EndChar

StartChar: o
Encoding: 111 111 65
Width: 432
VWidth: 1365
Flags: HW
LayerCount: 2
Fore
SplineSet
80 165 m 2
 80 142 88 122 104 105 c 128
 120 88 141 80 164 80 c 128
 187 80 207 88 224 104 c 128
 241 120 249 141 249 165 c 2
 249 369 l 2
 249 392 241 412 224 428 c 128
 207 444 187 453 164 453 c 128
 141 453 120 444 104 428 c 128
 88 412 80 392 80 369 c 2
 80 165 l 2
329 165 m 2
 329 119 313 80 281 48 c 128
 249 16 210 0 164 0 c 0
 119 0 80 16 48 48 c 128
 16 80 0 119 0 165 c 2
 0 369 l 2
 0 415 16 454 48 486 c 128
 80 518 119 533 164 533 c 0
 210 533 249 517 281 485 c 128
 313 453 329 414 329 369 c 2
 329 165 l 2
EndSplineSet
EndChar

StartChar: p
Encoding: 112 112 66
Width: 432
VWidth: 1365
Flags: HW
LayerCount: 2
Fore
SplineSet
80 511 m 1
 105 526 133 534 164 533 c 0
 210 533 249 517 281 485 c 128
 313 453 329 414 329 369 c 2
 329 165 l 2
 329 119 313 80 281 48 c 128
 249 16 210 0 164 0 c 0
 133 0 105 8 80 23 c 1
 80 -267 l 1
 0 -267 l 1
 0 533 l 1
 80 533 l 1
 80 511 l 1
80 369 m 2
 80 165 l 2
 80 142 88 122 105 105 c 256
 122 88 141 80 164 80 c 128
 187 80 207 88 224 104 c 128
 241 120 249 141 249 165 c 2
 249 369 l 2
 249 392 241 412 224 428 c 128
 207 444 187 453 164 453 c 128
 141 453 121 445 105 429 c 256
 88 412 80 392 80 369 c 2
EndSplineSet
EndChar

StartChar: q
Encoding: 113 113 67
Width: 432
VWidth: 1365
Flags: HW
LayerCount: 2
Fore
SplineSet
224 429 m 256
 207 446 187 454 164 454 c 128
 141 454 120 444 104 428 c 128
 88 412 80 392 80 369 c 2
 80 165 l 2
 80 142 88 122 104 105 c 128
 120 88 141 80 164 80 c 128
 187 80 207 88 224 105 c 256
 241 122 249 142 249 165 c 2
 249 369 l 2
 249 392 241 412 224 429 c 256
249 -131 m 2
 249 23 l 1
 224 8 196 0 165 0 c 0
 119 0 80 16 48 48 c 128
 16 80 0 119 0 165 c 2
 0 369 l 2
 0 415 16 454 48 486 c 128
 80 518 119 533 165 533 c 0
 196 533 224 526 249 511 c 1
 249 533 l 1
 329 533 l 1
 329 -131 l 2
 329 -168 316 -200 289 -227 c 128
 262 -254 230 -267 193 -267 c 2
 165 -267 l 1
 165 -187 l 1
 193 -187 l 2
 208 -187 221 -181 232 -170 c 128
 243 -159 249 -146 249 -131 c 2
EndSplineSet
EndChar

StartChar: r
Encoding: 114 114 68
Width: 432
VWidth: 1365
Flags: HW
LayerCount: 2
Fore
SplineSet
80 207 m 2
 80 0 l 1
 0 0 l 1
 0 533 l 1
 80 533 l 1
 80 420 l 1
 85 426 90 432 96 437 c 0
 159 501 237 533 329 533 c 1
 329 453 l 1
 260 453 201 429 153 381 c 0
 104 334 80 276 80 207 c 2
EndSplineSet
EndChar

StartChar: s
Encoding: 115 115 69
Width: 432
VWidth: 1365
Flags: HW
LayerCount: 2
Fore
SplineSet
256 495 m 128
 282 470 295 439 295 403 c 1
 215 403 l 1
 215 417 210 428 200 438 c 128
 190 448 178 453 164 453 c 128
 150 453 138 448 128 438 c 128
 118 428 114 418 114 404 c 128
 114 390 117 379 124 372 c 128
 131 365 137 361 142 358 c 2
 237 312 l 2
 254 304 274 288 296 266 c 128
 318 244 329 210 329 165 c 0
 329 119 313 80 281 48 c 128
 249 16 210 0 164 0 c 0
 119 0 80 16 48 48 c 128
 16 80 0 119 0 165 c 1
 80 165 l 1
 80 142 84 122 92 105 c 128
 100 88 121 80 152 80 c 128
 183 80 207 88 224 104 c 128
 241 120 249 141 249 164 c 128
 249 187 244 204 232 216 c 128
 220 228 210 236 201 240 c 2
 107 286 l 2
 94 293 78 304 60 322 c 128
 42 340 34 367 34 403 c 128
 34 439 46 470 72 495 c 128
 98 520 129 533 164 533 c 0
 200 533 230 520 256 495 c 128
EndSplineSet
EndChar

StartChar: t
Encoding: 116 116 70
Width: 309
VWidth: 1365
Flags: HW
LayerCount: 2
Fore
SplineSet
205 453 m 1
 205 533 l 1
 143 533 l 1
 143 800 l 1
 63 800 l 1
 63 533 l 1
 0 533 l 1
 0 453 l 1
 63 453 l 1
 63 136 l 2
 63 98 76 66 102 40 c 128
 128 14 161 0 199 0 c 2
 205 0 l 1
 205 80 l 1
 199 80 l 2
 184 80 171 85 160 96 c 128
 149 107 143 121 143 136 c 2
 143 453 l 1
 205 453 l 1
EndSplineSet
EndChar

StartChar: u
Encoding: 117 117 71
Width: 451
VWidth: 1365
Flags: HW
LayerCount: 2
Fore
SplineSet
297 34 m 0
 292 39 287 45 283 50 c 1
 282 49 282 49 281 48 c 0
 249 16 210 0 164 0 c 0
 119 0 80 16 48 48 c 128
 16 80 0 119 0 165 c 2
 0 533 l 1
 80 533 l 1
 80 165 l 2
 80 142 88 122 104 105 c 128
 120 88 141 80 164 80 c 128
 187 80 207 88 224 104 c 128
 241 120 249 141 249 165 c 2
 249 533 l 1
 329 533 l 1
 329 151 l 2
 329 130 335 112 347 97 c 1
 347 0 l 1
 329 7 312 19 297 34 c 0
EndSplineSet
EndChar

StartChar: v
Encoding: 118 118 72
Width: 432
VWidth: 1365
Flags: HW
LayerCount: 2
Fore
SplineSet
0 533 m 1
 81 533 l 1
 165 113 l 1
 247 533 l 1
 329 533 l 1
 224 0 l 1
 105 0 l 1
 0 533 l 1
EndSplineSet
EndChar

StartChar: w
Encoding: 119 119 73
Width: 592
VWidth: 1365
Flags: HW
LayerCount: 2
Fore
SplineSet
0 533 m 1
 69 0 l 1
 124 0 l 1
 245 305 l 1
 365 0 l 1
 419 0 l 1
 489 533 l 1
 426 533 l 1
 367 213 l 1
 272 453 l 1
 217 453 l 1
 122 213 l 1
 72 533 l 1
 0 533 l 1
EndSplineSet
EndChar

StartChar: x
Encoding: 120 120 74
Width: 432
VWidth: 1365
Flags: HW
LayerCount: 2
Fore
SplineSet
88 533 m 1
 165 364 l 1
 241 533 l 1
 329 533 l 1
 208 267 l 1
 329 0 l 1
 241 0 l 1
 165 169 l 1
 88 0 l 1
 0 0 l 1
 116 267 l 1
 0 533 l 1
 88 533 l 1
EndSplineSet
EndChar

StartChar: y
Encoding: 121 121 75
Width: 432
VWidth: 1365
Flags: HW
LayerCount: 2
Fore
SplineSet
123 -1 m 1
 0 533 l 1
 82 533 l 1
 165 167 l 1
 247 533 l 1
 329 533 l 1
 175 -152 l 1
 170 -181 158 -206 137 -227 c 0
 110 -254 78 -267 40 -267 c 1
 40 -187 l 1
 55 -187 68 -181 79 -170 c 0
 87 -162 92 -153 95 -143 c 2
 123 -1 l 1
EndSplineSet
EndChar

StartChar: z
Encoding: 122 122 76
Width: 432
VWidth: 1365
Flags: HW
LayerCount: 2
Fore
SplineSet
0 532 m 1
 329 532 l 1
 329 428 l 1
 80 80 l 1
 329 80 l 1
 329 -1 l 1
 0 -1 l 1
 0 105 l 1
 238 453 l 1
 0 453 l 1
 0 532 l 1
EndSplineSet
EndChar

StartChar: asciitilde
Encoding: 126 126 77
Width: 599
VWidth: 1365
Flags: HW
LayerCount: 2
Fore
SplineSet
143 536 m 256
 184 536 221 519 254 485 c 1
 324 405 l 2
 346 383 370 372 396 372 c 128
 422 372 443 379 456 392 c 128
 469 405 478 417 483 428 c 1
 539 428 l 1
 532 403 516 380 492 356 c 128
 468 332 437 320 396 320 c 256
 355 320 318 337 285 371 c 1
 215 451 l 2
 193 473 168 484 142 484 c 128
 116 484 96 477 83 464 c 128
 70 451 60 439 55 428 c 1
 0 428 l 1
 7 453 22 476 46 500 c 128
 70 524 102 536 143 536 c 256
EndSplineSet
EndChar

StartChar: degree
Encoding: 176 176 78
Width: 119
VWidth: 1365
Flags: HW
LayerCount: 2
Fore
SplineSet
0 880 m 256
 22 880 40 872 56 856 c 128
 72 840 80 822 80 800 c 256
 80 778 72 760 56 744 c 128
 40 728 22 720 0 720 c 0
 -22 720 -40 728 -56 743 c 128
 -72 758 -80 777 -80 800 c 256
 -80 822 -72 840 -56 856 c 128
 -40 872 -22 880 0 880 c 256
0 828 m 0
 -7 828 -14 825 -20 820 c 128
 -26 815 -28 808 -28 800 c 0
 -28 793 -26 786 -20 780 c 128
 -14 774 -7 772 0 772 c 256
 7 772 14 775 20 780 c 128
 26 785 28 792 28 800 c 0
 28 808 25 815 20 820 c 128
 15 825 8 828 0 828 c 0
EndSplineSet
EndChar

StartChar: bullet
Encoding: 8226 8226 79
Width: 359
VWidth: 1365
Flags: HW
LayerCount: 2
Fore
SplineSet
120 520 m 256
 153 520 182 508 205 485 c 128
 228 462 240 433 240 400 c 256
 240 367 228 338 205 315 c 128
 182 292 153 280 120 280 c 256
 87 280 58 292 35 315 c 128
 12 338 0 367 0 400 c 256
 0 433 12 462 35 485 c 128
 58 508 87 520 120 520 c 256
120 469 m 0
 101 469 85 462 72 449 c 128
 59 436 52 420 52 401 c 0
 52 382 59 365 72 352 c 128
 85 339 101 332 120 332 c 256
 139 332 155 339 168 352 c 128
 181 365 188 382 188 401 c 0
 188 420 181 436 168 449 c 128
 155 462 139 469 120 469 c 0
EndSplineSet
EndChar

StartChar: plusminus
Encoding: 177 177 80
Width: 599
VWidth: 1365
Flags: HW
LayerCount: 2
Fore
SplineSet
0 147 m 1
 480 147 l 1
 480 95 l 1
 0 95 l 1
 0 147 l 1
266 705 m 1
 266 491 l 1
 480 491 l 1
 480 439 l 1
 266 439 l 1
 266 225 l 1
 214 225 l 1
 214 439 l 1
 0 439 l 1
 0 491 l 1
 214 491 l 1
 214 705 l 1
 266 705 l 1
EndSplineSet
EndChar

StartChar: lessequal
Encoding: 8804 8804 81
Width: 599
VWidth: 1365
Flags: HW
LayerCount: 2
Fore
SplineSet
480 79 m 1
 0 319 l 1
 0 377 l 1
 480 137 l 1
 480 79 l 1
0 481 m 1
 480 721 l 1
 480 663 l 1
 116 481 l 1
 480 299 l 1
 480 241 l 1
 0 481 l 1
EndSplineSet
EndChar

StartChar: greaterequal
Encoding: 8805 8805 82
Width: 599
VWidth: 1365
Flags: HW
LayerCount: 2
Fore
SplineSet
0 137 m 1
 480 377 l 1
 480 319 l 1
 0 79 l 1
 0 137 l 1
0 241 m 1
 0 299 l 1
 364 481 l 1
 0 663 l 1
 0 721 l 1
 480 481 l 1
 0 241 l 1
EndSplineSet
EndChar

StartChar: yen
Encoding: 165 165 83
Width: 1079
VWidth: 1365
Flags: HW
LayerCount: 2
Fore
SplineSet
661 90 m 2
 668 83 677 77 686 72 c 0
 709 59 734 52 760 52 c 256
 786 52 811 59 834 72 c 128
 857 85 875 103 888 126 c 128
 901 149 908 174 908 200 c 256
 908 226 901 250 888 274 c 128
 875 298 856 316 832 329 c 128
 808 342 785 348 760 348 c 256
 735 348 711 342 687 329 c 0
 676 322 665 315 656 306 c 2
 522 201 l 1
 661 90 l 2
480 168 m 1
 341 57 l 2
 328 45 315 35 300 27 c 0
 268 9 235 0 200 0 c 256
 165 0 132 8 100 26 c 128
 68 44 44 68 26 100 c 128
 8 132 0 165 0 200 c 256
 0 235 9 268 27 300 c 128
 45 332 70 357 102 374 c 128
 134 391 166 400 200 400 c 0
 233 400 266 392 298 375 c 0
 311 368 322 360 333 351 c 2
 480 235 l 1
 627 351 l 2
 638 360 649 368 662 375 c 0
 694 392 727 400 760 400 c 0
 794 400 826 391 858 374 c 128
 890 357 915 332 933 300 c 128
 951 268 960 235 960 200 c 256
 960 165 952 132 934 100 c 128
 916 68 892 44 860 26 c 128
 828 8 795 0 760 0 c 256
 725 0 692 9 661 27 c 0
 646 36 632 46 619 57 c 2
 480 168 l 1
438 201 m 1
 304 306 l 2
 295 315 284 322 273 329 c 0
 250 342 225 348 200 348 c 256
 175 348 152 342 128 329 c 128
 104 316 85 298 72 274 c 128
 59 250 52 226 52 200 c 256
 52 174 59 149 72 126 c 128
 85 103 103 85 126 72 c 128
 149 59 174 52 200 52 c 256
 226 52 251 59 274 72 c 0
 283 77 292 83 299 90 c 2
 438 201 l 1
EndSplineSet
EndChar

StartChar: summation
Encoding: 8721 8721 84
Width: 599
VWidth: 1365
Flags: HW
LayerCount: 2
Fore
SplineSet
480 800 m 1
 480 700 l 1
 117 700 l 1
 296 400 l 1
 117 100 l 1
 480 100 l 1
 480 0 l 1
 0 0 l 1
 0 100 l 1
 179 400 l 1
 0 700 l 1
 0 800 l 1
 480 800 l 1
EndSplineSet
EndChar

StartChar: Omega
Encoding: 8486 8486 85
Width: 939
VWidth: 1365
Flags: HW
LayerCount: 2
Fore
SplineSet
410 800 m 256
 490 800 558 772 615 715 c 128
 672 658 700 590 700 510 c 128
 700 430 684 374 652 342 c 128
 620 310 601 292 594 286 c 1
 594 100 l 1
 820 100 l 1
 820 0 l 1
 494 0 l 1
 494 339 l 1
 522 353 l 1
 574 405 600 457 600 510 c 128
 600 563 581 607 544 644 c 128
 507 681 463 700 410 700 c 0
 359 700 314 681 276 644 c 128
 238 607 220 563 220 510 c 128
 220 457 246 405 298 353 c 1
 326 339 l 1
 326 0 l 1
 0 0 l 1
 0 100 l 1
 226 100 l 1
 226 286 l 1
 215 295 l 1
 150 359 118 430 119 510 c 128
 120 590 148 658 205 715 c 128
 262 772 330 800 410 800 c 256
EndSplineSet
EndChar

StartChar: radical
Encoding: 8730 8730 86
Width: 999
VWidth: 1365
Flags: HW
LayerCount: 2
Fore
SplineSet
544 960 m 1
 880 960 l 1
 880 899 l 1
 585 899 l 1
 215 0 l 1
 104 0 l 1
 104 638 l 1
 0 638 l 1
 0 802 l 1
 215 802 l 1
 215 168 l 1
 218 168 l 1
 544 960 l 1
EndSplineSet
EndChar

StartChar: approxequal
Encoding: 8776 8776 87
Width: 599
VWidth: 1365
Flags: HW
LayerCount: 2
Fore
SplineSet
185 576 m 2
 309 483 l 2
 326 470 346 464 370 464 c 128
 394 464 414 471 427 484 c 128
 440 497 449 509 454 520 c 1
 480 520 l 1
 474 503 462 486 444 468 c 128
 426 450 402 440 372 440 c 128
 342 440 316 448 295 464 c 2
 171 557 l 2
 154 570 134 576 110 576 c 128
 86 576 66 569 53 556 c 128
 40 543 31 531 26 520 c 1
 0 520 l 1
 6 537 18 554 36 572 c 128
 54 590 78 600 108 600 c 128
 138 600 164 592 185 576 c 2
185 456 m 2
 309 363 l 2
 326 350 346 344 370 344 c 128
 394 344 414 351 427 364 c 128
 440 377 449 389 454 400 c 1
 480 400 l 1
 474 383 462 366 444 348 c 128
 426 330 402 320 372 320 c 128
 342 320 316 328 295 344 c 2
 171 437 l 2
 154 450 134 456 110 456 c 128
 86 456 66 449 53 436 c 128
 40 423 31 411 26 400 c 1
 0 400 l 1
 6 417 18 434 36 452 c 128
 54 470 78 480 108 480 c 128
 138 480 164 472 185 456 c 2
EndSplineSet
EndChar

StartChar: Delta
Encoding: 8710 8710 88
Width: 939
VWidth: 1365
Flags: HW
LayerCount: 2
Fore
SplineSet
820 0 m 1
 0 0 l 1
 410 800 l 1
 820 0 l 1
163 100 m 1
 657 100 l 1
 410 581 l 1
 163 100 l 1
EndSplineSet
EndChar

StartChar: Alpha
Encoding: 913 913 89
Width: 599
VWidth: 1365
Flags: HW
LayerCount: 2
Fore
SplineSet
190 800 m 1
 290 800 l 1
 480 0 l 1
 377 0 l 1
 337 167 l 1
 143 167 l 1
 103 0 l 1
 0 0 l 1
 190 800 l 1
166 267 m 1
 314 267 l 1
 240 578 l 1
 166 267 l 1
EndSplineSet
EndChar

StartChar: Beta
Encoding: 914 914 90
Width: 599
VWidth: 1365
Flags: HW
LayerCount: 2
Fore
SplineSet
0 800 m 1
 280 800 l 2
 335 800 383 780 422 741 c 128
 461 702 480 655 480 600 c 256
 480 545 454 491 401 438 c 1
 454 385 480 326 480 260 c 2
 480 240 l 2
 480 174 457 117 410 70 c 128
 363 23 306 0 240 0 c 2
 0 0 l 1
 0 800 l 1
100 700 m 1
 100 500 l 1
 280 500 l 2
 307 500 330 510 350 530 c 128
 370 550 380 573 380 600 c 128
 380 627 370 650 350 670 c 128
 330 690 307 700 280 700 c 2
 100 700 l 1
100 400 m 1
 100 100 l 1
 240 100 l 2
 279 100 312 114 339 141 c 128
 366 168 380 201 380 240 c 2
 380 260 l 2
 380 299 366 332 339 359 c 128
 312 386 279 400 240 400 c 2
 100 400 l 1
EndSplineSet
EndChar

StartChar: Gamma
Encoding: 915 915 91
Width: 599
VWidth: 1365
Flags: HW
LayerCount: 2
Fore
SplineSet
480 800 m 1
 480 700 l 1
 100 700 l 1
 100 0 l 1
 0 0 l 1
 0 800 l 1
 480 800 l 1
EndSplineSet
EndChar

StartChar: uni0394
Encoding: 916 916 92
Width: 939
VWidth: 1365
Flags: HW
LayerCount: 2
Fore
SplineSet
820 0 m 1
 0 0 l 1
 410 800 l 1
 820 0 l 1
163 100 m 1
 657 100 l 1
 410 581 l 1
 163 100 l 1
EndSplineSet
EndChar

StartChar: Epsilon
Encoding: 917 917 93
Width: 599
VWidth: 1365
Flags: HW
LayerCount: 2
Fore
SplineSet
430 800 m 1
 430 700 l 1
 100 700 l 1
 100 500 l 1
 380 500 l 1
 380 400 l 1
 100 400 l 1
 100 100 l 1
 480 100 l 1
 480 0 l 1
 0 0 l 1
 0 800 l 1
 430 800 l 1
EndSplineSet
EndChar

StartChar: Zeta
Encoding: 918 918 94
Width: 599
VWidth: 1365
Flags: HW
LayerCount: 2
Fore
SplineSet
480 800 m 1
 480 661 l 1
 100 100 l 1
 480 100 l 1
 480 0 l 1
 0 0 l 1
 0 139 l 1
 385 700 l 1
 0 700 l 1
 0 800 l 1
 480 800 l 1
EndSplineSet
EndChar

StartChar: Eta
Encoding: 919 919 95
Width: 599
VWidth: 1365
Flags: HW
LayerCount: 2
Fore
SplineSet
100 800 m 1
 100 500 l 1
 380 500 l 1
 380 800 l 1
 480 800 l 1
 480 0 l 1
 380 0 l 1
 380 400 l 1
 100 400 l 1
 100 0 l 1
 0 0 l 1
 0 800 l 1
 100 800 l 1
EndSplineSet
EndChar

StartChar: Theta
Encoding: 920 920 96
Width: 599
VWidth: 1365
Flags: HW
LayerCount: 2
Fore
SplineSet
100 350 m 1
 100 240 l 2
 100 201 114 168 141 141 c 128
 168 114 201 100 240 100 c 256
 279 100 312 114 339 141 c 128
 366 168 380 201 380 240 c 2
 380 350 l 1
 100 350 l 1
380 450 m 1
 380 560 l 2
 380 599 366 632 339 659 c 128
 312 686 279 700 240 700 c 256
 201 700 168 686 141 659 c 128
 114 632 100 599 100 560 c 2
 100 450 l 1
 380 450 l 1
0 560 m 2
 0 626 23 683 70 730 c 128
 117 777 174 800 240 800 c 256
 306 800 363 777 410 730 c 128
 457 683 480 626 480 560 c 2
 480 240 l 2
 480 174 457 117 410 70 c 128
 363 23 306 0 240 0 c 256
 174 0 117 23 70 70 c 128
 23 117 0 174 0 240 c 2
 0 560 l 2
EndSplineSet
EndChar

StartChar: Iota
Encoding: 921 921 97
Width: 219
VWidth: 1365
Flags: HW
LayerCount: 2
Fore
SplineSet
0 800 m 1
 100 800 l 1
 100 0 l 1
 0 0 l 1
 0 800 l 1
EndSplineSet
EndChar

StartChar: Kappa
Encoding: 922 922 98
Width: 599
VWidth: 1365
Flags: HW
LayerCount: 2
Fore
SplineSet
100 800 m 1
 100 439 l 1
 357 800 l 1
 480 800 l 1
 290 533 l 1
 480 0 l 1
 374 0 l 1
 219 434 l 1
 100 267 l 1
 100 0 l 1
 0 0 l 1
 0 800 l 1
 100 800 l 1
EndSplineSet
EndChar

StartChar: Lambda
Encoding: 923 923 99
Width: 939
VWidth: 1365
Flags: HW
LayerCount: 2
Fore
SplineSet
820 0 m 1
 707 0 l 1
 410 581 l 1
 111 0 l 1
 0 0 l 1
 410 800 l 1
 820 0 l 1
EndSplineSet
EndChar

StartChar: Mu
Encoding: 924 924 100
Width: 839
VWidth: 1365
Flags: HW
LayerCount: 2
Fore
SplineSet
100 800 m 1
 360 400 l 1
 620 800 l 1
 720 800 l 1
 720 0 l 1
 620 0 l 1
 620 617 l 1
 360 217 l 1
 100 617 l 1
 100 0 l 1
 0 0 l 1
 0 800 l 1
 100 800 l 1
EndSplineSet
EndChar

StartChar: Nu
Encoding: 925 925 101
Width: 599
VWidth: 1365
Flags: HW
LayerCount: 2
Fore
SplineSet
480 800 m 1
 480 1 l 1
 370 0 l 1
 100 584 l 1
 100 0 l 1
 0 0 l 1
 0 800 l 1
 103 800 l 1
 380 216 l 1
 380 800 l 1
 480 800 l 1
EndSplineSet
EndChar

StartChar: Xi
Encoding: 926 926 102
Width: 599
VWidth: 1365
Flags: HW
LayerCount: 2
Fore
SplineSet
0 800 m 1
 480 800 l 1
 480 650 l 1
 380 650 l 1
 380 700 l 1
 100 700 l 1
 100 650 l 1
 0 650 l 1
 0 800 l 1
380 450 m 1
 380 350 l 1
 100 350 l 1
 100 450 l 1
 380 450 l 1
100 150 m 1
 100 100 l 1
 380 100 l 1
 380 150 l 1
 480 150 l 1
 480 0 l 1
 0 0 l 1
 0 150 l 1
 100 150 l 1
EndSplineSet
EndChar

StartChar: Omicron
Encoding: 927 927 103
Width: 599
VWidth: 1365
Flags: HW
LayerCount: 2
Fore
SplineSet
240 800 m 256
 306 800 363 777 410 730 c 128
 457 683 480 626 480 560 c 2
 480 240 l 2
 480 174 457 117 410 70 c 128
 363 23 306 0 240 0 c 256
 174 0 117 23 70 70 c 128
 23 117 0 174 0 240 c 2
 0 560 l 2
 0 626 23 683 70 730 c 128
 117 777 174 800 240 800 c 256
100 560 m 2
 100 240 l 2
 100 201 114 168 141 141 c 128
 168 114 201 100 240 100 c 256
 279 100 312 114 339 141 c 128
 366 168 380 201 380 240 c 2
 380 560 l 2
 380 599 366 632 339 659 c 128
 312 686 279 700 240 700 c 256
 201 700 168 686 141 659 c 128
 114 632 100 599 100 560 c 2
EndSplineSet
EndChar

StartChar: Pi
Encoding: 928 928 104
Width: 599
VWidth: 1365
Flags: HW
LayerCount: 2
Fore
SplineSet
480 800 m 1
 480 0 l 1
 380 0 l 1
 380 700 l 1
 100 700 l 1
 100 0 l 1
 0 0 l 1
 0 800 l 1
 480 800 l 1
EndSplineSet
EndChar

StartChar: Rho
Encoding: 929 929 105
Width: 599
VWidth: 1365
Flags: HW
LayerCount: 2
Fore
SplineSet
240 800 m 2
 306 800 363 777 410 730 c 128
 457 683 480 626 480 560 c 2
 480 540 l 2
 480 474 457 417 410 370 c 128
 363 323 306 300 240 300 c 2
 100 300 l 1
 100 0 l 1
 0 0 l 1
 0 800 l 1
 240 800 l 2
100 700 m 1
 100 400 l 1
 240 400 l 2
 279 400 312 414 339 441 c 128
 366 468 380 501 380 540 c 2
 380 560 l 2
 380 599 366 632 339 659 c 128
 312 686 279 700 240 700 c 2
 100 700 l 1
EndSplineSet
EndChar

StartChar: Sigma
Encoding: 931 931 106
Width: 599
VWidth: 1365
Flags: HW
LayerCount: 2
Fore
SplineSet
480 800 m 1
 480 700 l 1
 117 700 l 1
 296 400 l 1
 117 100 l 1
 480 100 l 1
 480 0 l 1
 0 0 l 1
 0 100 l 1
 179 400 l 1
 0 700 l 1
 0 800 l 1
 480 800 l 1
EndSplineSet
EndChar

StartChar: Tau
Encoding: 932 932 107
Width: 599
VWidth: 1365
Flags: HW
LayerCount: 2
Fore
SplineSet
480 800 m 1
 480 700 l 1
 290 700 l 1
 290 0 l 1
 190 0 l 1
 190 700 l 1
 0 700 l 1
 0 800 l 1
 480 800 l 1
EndSplineSet
EndChar

StartChar: Upsilon
Encoding: 933 933 108
Width: 599
VWidth: 1365
Flags: HW
LayerCount: 2
Fore
SplineSet
106 800 m 1
 240 423 l 1
 374 800 l 1
 480 800 l 1
 290 267 l 1
 290 0 l 1
 190 0 l 1
 190 267 l 1
 0 800 l 1
 106 800 l 1
EndSplineSet
EndChar

StartChar: Phi
Encoding: 934 934 109
Width: 839
VWidth: 1365
Flags: HW
LayerCount: 2
Fore
SplineSet
310 800 m 1
 410 800 l 1
 410 700 l 1
 480 700 l 2
 546 700 603 677 650 630 c 128
 697 583 720 526 720 460 c 2
 720 440 l 2
 720 374 697 317 650 270 c 128
 603 223 546 200 480 200 c 2
 410 200 l 1
 410 0 l 1
 310 0 l 1
 310 200 l 1
 240 200 l 2
 174 200 117 223 70 270 c 128
 23 317 0 374 0 440 c 2
 0 460 l 2
 0 526 23 583 70 630 c 128
 117 677 174 700 240 700 c 2
 310 700 l 1
 310 800 l 1
100 460 m 2
 100 440 l 2
 100 401 114 368 141 341 c 128
 168 314 201 300 240 300 c 2
 310 300 l 1
 310 600 l 1
 240 600 l 2
 201 600 168 586 141 559 c 128
 114 532 100 499 100 460 c 2
579 559 m 128
 552 586 519 600 480 600 c 2
 410 600 l 1
 410 300 l 1
 480 300 l 2
 519 300 552 314 579 341 c 128
 606 368 620 401 620 440 c 2
 620 460 l 2
 620 499 606 532 579 559 c 128
EndSplineSet
EndChar

StartChar: Chi
Encoding: 935 935 110
Width: 599
VWidth: 1365
Flags: HW
LayerCount: 2
Fore
SplineSet
103 800 m 1
 240 519 l 1
 370 800 l 1
 480 800 l 1
 295 400 l 1
 480 0 l 1
 370 0 l 1
 240 281 l 1
 103 0 l 1
 0 0 l 1
 185 400 l 1
 2 800 l 1
 103 800 l 1
EndSplineSet
EndChar

StartChar: Psi
Encoding: 936 936 111
Width: 939
VWidth: 1365
Flags: HW
LayerCount: 2
Fore
SplineSet
130 746 m 128
 166 710 184 667 184 616 c 2
 184 540 l 2
 184 501 198 468 225 441 c 128
 252 414 285 400 324 400 c 2
 360 400 l 1
 360 800 l 1
 460 800 l 1
 460 400 l 1
 496 400 l 2
 535 400 568 414 595 441 c 128
 622 468 636 501 636 540 c 2
 636 616 l 2
 636 667 654 710 690 746 c 128
 726 782 769 800 820 800 c 1
 820 700 l 1
 797 700 776 692 760 676 c 128
 744 660 736 639 736 616 c 2
 736 540 l 2
 736 474 709 417 655 370 c 128
 601 323 548 300 496 300 c 2
 460 300 l 1
 460 0 l 1
 360 0 l 1
 360 300 l 1
 324 300 l 2
 258 300 201 323 154 370 c 128
 107 417 84 474 84 540 c 2
 84 616 l 2
 84 639 76 660 60 676 c 128
 44 692 23 700 0 700 c 1
 0 800 l 1
 51 800 94 782 130 746 c 128
EndSplineSet
EndChar

StartChar: uni03A9
Encoding: 937 937 112
Width: 939
VWidth: 1365
Flags: HW
LayerCount: 2
Fore
SplineSet
410 800 m 256
 490 800 558 772 615 715 c 128
 672 658 700 590 700 510 c 128
 700 430 684 374 652 342 c 128
 620 310 601 292 594 286 c 1
 594 100 l 1
 820 100 l 1
 820 0 l 1
 494 0 l 1
 494 339 l 1
 522 353 l 1
 574 405 600 457 600 510 c 128
 600 563 581 607 544 644 c 128
 507 681 463 700 410 700 c 0
 359 700 314 681 276 644 c 128
 238 607 220 563 220 510 c 128
 220 457 246 405 298 353 c 1
 326 339 l 1
 326 0 l 1
 0 0 l 1
 0 100 l 1
 226 100 l 1
 226 286 l 1
 215 295 l 1
 150 359 118 430 119 510 c 128
 120 590 148 658 205 715 c 128
 262 772 330 800 410 800 c 256
EndSplineSet
EndChar

StartChar: "+AMAA"
Encoding: 1040 1040 113
Width: 599
VWidth: 1365
Flags: HW
LayerCount: 2
Fore
SplineSet
190 800 m 1
 290 800 l 1
 480 0 l 1
 377 0 l 1
 337 167 l 1
 143 167 l 1
 103 0 l 1
 0 0 l 1
 190 800 l 1
166 267 m 1
 314 267 l 1
 240 578 l 1
 166 267 l 1
EndSplineSet
EndChar

StartChar: "+AMEA"
Encoding: 1041 1041 114
Width: 599
VWidth: 1365
Flags: HW
LayerCount: 2
Fore
SplineSet
430 800 m 1
 430 700 l 1
 100 700 l 1
 100 500 l 1
 240 500 l 2
 306 500 363 477 410 430 c 128
 457 383 480 326 480 260 c 2
 480 240 l 2
 480 174 457 117 410 70 c 128
 363 23 306 0 240 0 c 2
 0 0 l 1
 0 800 l 1
 430 800 l 1
100 400 m 1
 100 100 l 1
 240 100 l 2
 279 100 312 114 339 141 c 128
 366 168 380 201 380 240 c 2
 380 260 l 2
 380 299 366 332 339 359 c 128
 312 386 279 400 240 400 c 2
 100 400 l 1
EndSplineSet
EndChar

StartChar: "+AMIA"
Encoding: 1042 1042 115
Width: 599
VWidth: 1365
Flags: HW
LayerCount: 2
Fore
SplineSet
0 800 m 1
 280 800 l 2
 335 800 383 780 422 741 c 128
 461 702 480 655 480 600 c 256
 480 545 454 491 401 438 c 1
 454 385 480 326 480 260 c 2
 480 240 l 2
 480 174 457 117 410 70 c 128
 363 23 306 0 240 0 c 2
 0 0 l 1
 0 800 l 1
100 700 m 1
 100 500 l 1
 280 500 l 2
 307 500 330 510 350 530 c 128
 370 550 380 573 380 600 c 128
 380 627 370 650 350 670 c 128
 330 690 307 700 280 700 c 2
 100 700 l 1
100 400 m 1
 100 100 l 1
 240 100 l 2
 279 100 312 114 339 141 c 128
 366 168 380 201 380 240 c 2
 380 260 l 2
 380 299 366 332 339 359 c 128
 312 386 279 400 240 400 c 2
 100 400 l 1
EndSplineSet
EndChar

StartChar: "+AMMA"
Encoding: 1043 1043 116
Width: 599
VWidth: 1365
Flags: HW
LayerCount: 2
Fore
SplineSet
480 800 m 1
 480 700 l 1
 100 700 l 1
 100 0 l 1
 0 0 l 1
 0 800 l 1
 480 800 l 1
EndSplineSet
EndChar

StartChar: "+AMQA"
Encoding: 1044 1044 117
Width: 839
VWidth: 1365
Flags: HW
LayerCount: 2
Fore
SplineSet
380 800 m 2
 620 800 l 1
 620 100 l 1
 720 100 l 1
 720 -100 l 1
 620 -100 l 1
 620 0 l 1
 100 0 l 1
 98 -100 l 1
 0 -100 l 1
 0 100 l 1
 100 100 l 1
 240 689 l 2
 257 763 304 800 380 800 c 2
203 100 m 1
 520 100 l 1
 520 700 l 1
 380 700 l 2
 357 700 342 689 337 666 c 2
 203 100 l 1
EndSplineSet
EndChar

StartChar: "+AMUA"
Encoding: 1045 1045 118
Width: 599
VWidth: 1365
Flags: HW
LayerCount: 2
Fore
SplineSet
430 800 m 1
 430 700 l 1
 100 700 l 1
 100 500 l 1
 380 500 l 1
 380 400 l 1
 100 400 l 1
 100 100 l 1
 480 100 l 1
 480 0 l 1
 0 0 l 1
 0 800 l 1
 430 800 l 1
EndSplineSet
EndChar

StartChar: "+AMYA"
Encoding: 1046 1046 119
Width: 839
VWidth: 1365
Flags: HW
LayerCount: 2
Fore
SplineSet
112 800 m 1
 263 500 l 1
 310 500 l 1
 310 800 l 1
 409 800 l 1
 409 500 l 1
 457 500 l 1
 608 800 l 1
 720 800 l 1
 544 450 l 1
 720 0 l 1
 613 0 l 1
 456 400 l 1
 409 400 l 1
 409 0 l 1
 310 0 l 1
 310 400 l 1
 264 400 l 1
 107 0 l 1
 0 0 l 1
 176 450 l 1
 0 800 l 1
 112 800 l 1
EndSplineSet
EndChar

StartChar: "+AMcA"
Encoding: 1047 1047 120
Width: 599
VWidth: 1365
Flags: HW
LayerCount: 2
Fore
SplineSet
410 730 m 128
 457 683 480 626 480 560 c 0
 480 502 455 449 406 400 c 1
 455 351 480 298 480 240 c 0
 480 174 457 117 410 70 c 128
 363 23 306 0 240 0 c 256
 174 0 117 23 70 70 c 128
 23 117 0 174 0 240 c 1
 100 240 l 1
 100 201 114 168 141 141 c 128
 168 114 201 100 240 100 c 128
 279 100 312 114 339 141 c 128
 366 168 380 201 380 240 c 0
 380 270 370 296 348 318 c 128
 326 340 300 350 270 350 c 2
 190 350 l 1
 190 450 l 1
 270 450 l 2
 300 450 326 460 348 482 c 128
 370 504 380 532 380 567 c 0
 380 601 366 632 339 659 c 128
 312 686 279 700 240 700 c 128
 201 700 168 686 141 659 c 128
 114 632 100 599 100 560 c 1
 0 560 l 1
 0 626 23 683 70 730 c 128
 117 777 174 800 240 800 c 256
 306 800 363 777 410 730 c 128
EndSplineSet
EndChar

StartChar: "+AMgA"
Encoding: 1048 1048 121
Width: 599
VWidth: 1365
Flags: HW
LayerCount: 2
Fore
SplineSet
100 800 m 1
 100 216 l 1
 377 800 l 1
 480 800 l 1
 480 0 l 1
 380 0 l 1
 380 584 l 1
 110 0 l 1
 0 1 l 1
 0 800 l 1
 100 800 l 1
EndSplineSet
EndChar

StartChar: "+AMkA"
Encoding: 1049 1049 122
Width: 599
VWidth: 1365
Flags: HW
LayerCount: 2
Fore
SplineSet
330 1000 m 1
 330 900 l 1
 150 900 l 1
 150 1000 l 1
 330 1000 l 1
100 800 m 1
 100 216 l 1
 377 800 l 1
 480 800 l 1
 480 0 l 1
 380 0 l 1
 380 584 l 1
 110 0 l 1
 0 1 l 1
 0 800 l 1
 100 800 l 1
EndSplineSet
EndChar

StartChar: "+AMoA"
Encoding: 1050 1050 123
Width: 599
VWidth: 1365
Flags: HW
LayerCount: 2
Fore
SplineSet
100 800 m 1
 100 439 l 1
 357 800 l 1
 480 800 l 1
 290 533 l 1
 480 0 l 1
 374 0 l 1
 219 434 l 1
 100 267 l 1
 100 0 l 1
 0 0 l 1
 0 800 l 1
 100 800 l 1
EndSplineSet
EndChar

StartChar: "+AMsA"
Encoding: 1051 1051 124
Width: 599
VWidth: 1365
Flags: HW
LayerCount: 2
Fore
SplineSet
296 800 m 2
 480 800 l 1
 480 0 l 1
 380 0 l 1
 380 700 l 1
 296 700 l 2
 272 700 258 688 253 665 c 2
 141 115 l 2
 125 38 78 0 0 0 c 1
 0 100 l 1
 24 100 38 112 43 135 c 2
 158 684 l 1
 172 761 218 800 296 800 c 2
EndSplineSet
EndChar

StartChar: "+AMwA"
Encoding: 1052 1052 125
Width: 839
VWidth: 1365
Flags: HW
LayerCount: 2
Fore
SplineSet
100 800 m 1
 360 400 l 1
 620 800 l 1
 720 800 l 1
 720 0 l 1
 620 0 l 1
 620 617 l 1
 360 217 l 1
 100 617 l 1
 100 0 l 1
 0 0 l 1
 0 800 l 1
 100 800 l 1
EndSplineSet
EndChar

StartChar: "+AM0A"
Encoding: 1053 1053 126
Width: 599
VWidth: 1365
Flags: HW
LayerCount: 2
Fore
SplineSet
100 800 m 1
 100 500 l 1
 380 500 l 1
 380 800 l 1
 480 800 l 1
 480 0 l 1
 380 0 l 1
 380 400 l 1
 100 400 l 1
 100 0 l 1
 0 0 l 1
 0 800 l 1
 100 800 l 1
EndSplineSet
EndChar

StartChar: "+AM4A"
Encoding: 1054 1054 127
Width: 599
VWidth: 1365
Flags: HW
LayerCount: 2
Fore
SplineSet
240 800 m 256
 306 800 363 777 410 730 c 128
 457 683 480 626 480 560 c 2
 480 240 l 2
 480 174 457 117 410 70 c 128
 363 23 306 0 240 0 c 256
 174 0 117 23 70 70 c 128
 23 117 0 174 0 240 c 2
 0 560 l 2
 0 626 23 683 70 730 c 128
 117 777 174 800 240 800 c 256
100 560 m 2
 100 240 l 2
 100 201 114 168 141 141 c 128
 168 114 201 100 240 100 c 256
 279 100 312 114 339 141 c 128
 366 168 380 201 380 240 c 2
 380 560 l 2
 380 599 366 632 339 659 c 128
 312 686 279 700 240 700 c 256
 201 700 168 686 141 659 c 128
 114 632 100 599 100 560 c 2
EndSplineSet
EndChar

StartChar: "+AM8A"
Encoding: 1055 1055 128
Width: 599
VWidth: 1365
Flags: HW
LayerCount: 2
Fore
SplineSet
480 800 m 1
 480 0 l 1
 380 0 l 1
 380 700 l 1
 100 700 l 1
 100 0 l 1
 0 0 l 1
 0 800 l 1
 480 800 l 1
EndSplineSet
EndChar

StartChar: "+ANAA"
Encoding: 1056 1056 129
Width: 599
VWidth: 1365
Flags: HW
LayerCount: 2
Fore
SplineSet
240 800 m 2
 306 800 363 777 410 730 c 128
 457 683 480 626 480 560 c 2
 480 540 l 2
 480 474 457 417 410 370 c 128
 363 323 306 300 240 300 c 2
 100 300 l 1
 100 0 l 1
 0 0 l 1
 0 800 l 1
 240 800 l 2
100 700 m 1
 100 400 l 1
 240 400 l 2
 279 400 312 414 339 441 c 128
 366 468 380 501 380 540 c 2
 380 560 l 2
 380 599 366 632 339 659 c 128
 312 686 279 700 240 700 c 2
 100 700 l 1
EndSplineSet
EndChar

StartChar: "+ANEA"
Encoding: 1057 1057 130
Width: 599
VWidth: 1365
Flags: HW
LayerCount: 2
Fore
SplineSet
480 240 m 1
 480 174 457 117 410 70 c 128
 363 23 306 0 240 0 c 256
 174 0 117 23 70 70 c 128
 23 117 0 174 0 240 c 2
 0 560 l 2
 0 626 23 683 70 730 c 128
 117 777 174 800 240 800 c 256
 306 800 363 777 410 730 c 128
 457 683 480 626 480 560 c 1
 380 560 l 1
 380 599 366 632 339 659 c 128
 312 686 279 700 240 700 c 256
 201 700 168 686 141 659 c 128
 114 632 100 599 100 560 c 2
 100 240 l 2
 100 201 114 168 141 141 c 128
 168 114 201 100 240 100 c 256
 279 100 312 114 339 141 c 128
 366 168 380 201 380 240 c 1
 480 240 l 1
EndSplineSet
EndChar

StartChar: "+ANIA"
Encoding: 1058 1058 131
Width: 599
VWidth: 1365
Flags: HW
LayerCount: 2
Fore
SplineSet
480 800 m 1
 480 700 l 1
 290 700 l 1
 290 0 l 1
 190 0 l 1
 190 700 l 1
 0 700 l 1
 0 800 l 1
 480 800 l 1
EndSplineSet
EndChar

StartChar: "+ANMA"
Encoding: 1059 1059 132
Width: 599
VWidth: 1365
Flags: HW
LayerCount: 2
Fore
SplineSet
101 800 m 1
 164 404 l 2
 165 394 170 385 178 378 c 128
 186 371 195 367 207 367 c 2
 276 367 l 1
 377 800 l 1
 480 800 l 1
 337 189 l 2
 326 143 300 100 260 60 c 128
 220 20 166 0 99 0 c 1
 100 99 l 1
 138 100 170 112 194 135 c 128
 218 158 233 184 239 211 c 2
 253 267 l 1
 207 267 l 2
 168 267 135 279 110 304 c 128
 85 329 70 357 65 388 c 2
 0 800 l 1
 101 800 l 1
EndSplineSet
EndChar

StartChar: "+ANQA"
Encoding: 1060 1060 133
Width: 839
VWidth: 1365
Flags: HW
LayerCount: 2
Fore
SplineSet
310 800 m 1
 410 800 l 1
 410 700 l 1
 480 700 l 2
 546 700 603 677 650 630 c 128
 697 583 720 526 720 460 c 2
 720 440 l 2
 720 374 697 317 650 270 c 128
 603 223 546 200 480 200 c 2
 410 200 l 1
 410 0 l 1
 310 0 l 1
 310 200 l 1
 240 200 l 2
 174 200 117 223 70 270 c 128
 23 317 0 374 0 440 c 2
 0 460 l 2
 0 526 23 583 70 630 c 128
 117 677 174 700 240 700 c 2
 310 700 l 1
 310 800 l 1
100 460 m 2
 100 440 l 2
 100 401 114 368 141 341 c 128
 168 314 201 300 240 300 c 2
 310 300 l 1
 310 600 l 1
 240 600 l 2
 201 600 168 586 141 559 c 128
 114 532 100 499 100 460 c 2
579 559 m 128
 552 586 519 600 480 600 c 2
 410 600 l 1
 410 300 l 1
 480 300 l 2
 519 300 552 314 579 341 c 128
 606 368 620 401 620 440 c 2
 620 460 l 2
 620 499 606 532 579 559 c 128
EndSplineSet
EndChar

StartChar: "+ANUA"
Encoding: 1061 1061 134
Width: 599
VWidth: 1365
Flags: HW
LayerCount: 2
Fore
SplineSet
103 800 m 1
 240 519 l 1
 370 800 l 1
 480 800 l 1
 295 400 l 1
 480 0 l 1
 370 0 l 1
 240 281 l 1
 103 0 l 1
 0 0 l 1
 185 400 l 1
 2 800 l 1
 103 800 l 1
EndSplineSet
EndChar

StartChar: "+ANYA"
Encoding: 1062 1062 135
Width: 699
VWidth: 1365
Flags: HW
LayerCount: 2
Fore
SplineSet
480 0 m 1
 0 0 l 1
 0 800 l 1
 100 800 l 1
 100 100 l 1
 380 100 l 1
 380 800 l 1
 480 800 l 1
 480 100 l 1
 580 100 l 1
 580 -100 l 1
 480 -100 l 1
 480 0 l 1
EndSplineSet
EndChar

StartChar: "+ANcA"
Encoding: 1063 1063 136
Width: 599
VWidth: 1365
Flags: HW
LayerCount: 2
Fore
SplineSet
100 800 m 1
 100 540 l 2
 100 501 114 468 141 441 c 128
 168 414 201 400 240 400 c 2
 380 400 l 1
 380 800 l 1
 480 800 l 1
 480 0 l 1
 380 0 l 1
 380 300 l 1
 240 300 l 2
 174 300 117 323 70 370 c 128
 23 417 0 474 0 540 c 2
 0 800 l 1
 100 800 l 1
EndSplineSet
EndChar

StartChar: "+ANgA"
Encoding: 1064 1064 137
Width: 839
VWidth: 1365
Flags: HW
LayerCount: 2
Fore
SplineSet
100 800 m 1
 100 100 l 1
 310 100 l 1
 310 800 l 1
 410 800 l 1
 410 100 l 1
 620 100 l 1
 620 800 l 1
 720 800 l 1
 720 0 l 1
 0 0 l 1
 0 800 l 1
 100 800 l 1
EndSplineSet
EndChar

StartChar: "+ANkA"
Encoding: 1065 1065 138
Width: 939
VWidth: 1365
Flags: HW
LayerCount: 2
Fore
SplineSet
720 0 m 1
 0 0 l 1
 0 800 l 1
 100 800 l 1
 100 100 l 1
 310 100 l 1
 310 800 l 1
 410 800 l 1
 410 100 l 1
 620 100 l 1
 620 800 l 1
 720 800 l 1
 720 100 l 1
 820 100 l 1
 820 -100 l 1
 720 -100 l 1
 720 0 l 1
EndSplineSet
EndChar

StartChar: "+ANoA"
Encoding: 1066 1066 139
Width: 839
VWidth: 1365
Flags: HW
LayerCount: 2
Fore
SplineSet
240 0 m 1
 240 700 l 1
 0 700 l 1
 0 800 l 1
 340 800 l 1
 340 500 l 1
 480 500 l 2
 546 500 603 477 650 430 c 128
 697 383 720 326 720 260 c 2
 720 240 l 2
 720 174 697 117 650 70 c 128
 603 23 546 0 480 0 c 2
 240 0 l 1
480 100 m 2
 519 100 552 114 579 141 c 128
 606 168 620 201 620 240 c 2
 620 260 l 2
 620 299 606 332 579 359 c 128
 552 386 519 400 480 400 c 2
 340 400 l 1
 340 100 l 1
 480 100 l 2
EndSplineSet
EndChar

StartChar: "+ANsA"
Encoding: 1067 1067 140
Width: 839
VWidth: 1365
Flags: HW
LayerCount: 2
Fore
SplineSet
620 800 m 1
 720 800 l 1
 720 0 l 1
 620 0 l 1
 620 800 l 1
0 0 m 1
 0 800 l 1
 100 800 l 1
 100 500 l 1
 240 500 l 2
 306 500 363 477 410 430 c 128
 457 383 480 326 480 260 c 2
 480 240 l 2
 480 174 457 117 410 70 c 128
 363 23 306 0 240 0 c 2
 0 0 l 1
240 100 m 2
 279 100 312 114 339 141 c 128
 366 168 380 201 380 240 c 2
 380 260 l 2
 380 299 366 332 339 359 c 128
 312 386 279 400 240 400 c 2
 100 400 l 1
 100 100 l 1
 240 100 l 2
EndSplineSet
EndChar

StartChar: "+ANwA"
Encoding: 1068 1068 141
Width: 599
VWidth: 1365
Flags: HW
LayerCount: 2
Fore
SplineSet
0 0 m 1
 0 800 l 1
 100 800 l 1
 100 500 l 1
 240 500 l 2
 306 500 363 477 410 430 c 128
 457 383 480 326 480 260 c 2
 480 240 l 2
 480 174 457 117 410 70 c 128
 363 23 306 0 240 0 c 2
 0 0 l 1
240 100 m 2
 279 100 312 114 339 141 c 128
 366 168 380 201 380 240 c 2
 380 260 l 2
 380 299 366 332 339 359 c 128
 312 386 279 400 240 400 c 2
 100 400 l 1
 100 100 l 1
 240 100 l 2
EndSplineSet
EndChar

StartChar: "+AN0A"
Encoding: 1069 1069 142
Width: 599
VWidth: 1365
Flags: HW
LayerCount: 2
Fore
SplineSet
380 500 m 1
 380 560 l 2
 380 599 366 632 339 659 c 128
 312 686 279 700 240 700 c 256
 201 700 168 686 141 659 c 128
 114 632 100 599 100 560 c 1
 0 560 l 1
 0 626 23 683 70 730 c 128
 117 777 174 800 240 800 c 256
 306 800 363 777 410 730 c 128
 457 683 480 626 480 560 c 2
 480 240 l 2
 480 174 457 117 410 70 c 128
 363 23 306 0 240 0 c 256
 174 0 117 23 70 70 c 128
 23 117 0 174 0 240 c 1
 100 240 l 1
 100 201 114 168 141 141 c 128
 168 114 201 100 240 100 c 256
 279 100 312 114 339 141 c 128
 366 168 380 201 380 240 c 2
 380 400 l 1
 190 400 l 1
 190 500 l 1
 380 500 l 1
EndSplineSet
EndChar

StartChar: "+AN4A"
Encoding: 1070 1070 143
Width: 839
VWidth: 1365
Flags: HW
LayerCount: 2
Fore
SplineSet
340 560 m 2
 340 240 l 2
 340 201 354 168 381 141 c 128
 408 114 441 100 480 100 c 256
 519 100 552 114 579 141 c 128
 606 168 620 201 620 240 c 2
 620 560 l 2
 620 599 606 632 579 659 c 128
 552 686 519 700 480 700 c 256
 441 700 408 686 381 659 c 128
 354 632 340 599 340 560 c 2
100 400 m 1
 100 0 l 1
 0 0 l 1
 0 800 l 1
 100 800 l 1
 100 500 l 1
 240 500 l 1
 240 560 l 2
 240 626 263 683 310 730 c 128
 357 777 414 800 480 800 c 256
 546 800 603 777 650 730 c 128
 697 683 720 626 720 560 c 2
 720 240 l 2
 720 174 697 117 650 70 c 128
 603 23 546 0 480 0 c 256
 414 0 357 23 310 70 c 128
 263 117 240 174 240 240 c 2
 240 400 l 1
 100 400 l 1
EndSplineSet
EndChar

StartChar: "+AN8A"
Encoding: 1071 1071 144
Width: 599
VWidth: 1365
Flags: HW
LayerCount: 2
Fore
SplineSet
240 700 m 2
 201 700 168 686 141 659 c 128
 114 632 100 599 100 560 c 2
 100 540 l 2
 100 501 114 468 141 441 c 128
 168 414 201 400 240 400 c 2
 380 400 l 1
 380 700 l 1
 240 700 l 2
143 320 m 1
 117 331 93 348 71 371 c 0
 24 418 0 474 0 540 c 2
 0 560 l 2
 0 626 23 683 70 730 c 128
 117 777 174 800 240 800 c 2
 480 800 l 1
 480 0 l 1
 380 0 l 1
 380 300 l 1
 243 300 l 1
 109 0 l 1
 0 0 l 1
 143 320 l 1
EndSplineSet
EndChar

StartChar: "+AOAA"
Encoding: 1072 1072 145
Width: 451
VWidth: 1365
Flags: HW
LayerCount: 2
Fore
SplineSet
165 533 m 0
 210 533 249 517 281 485 c 128
 313 453 329 414 329 369 c 2
 329 135 l 2
 329 117 332 105 338 99 c 128
 344 93 346 90 347 89 c 2
 347 0 l 1
 324 7 308 15 298 25 c 128
 288 35 282 42 279 46 c 1
 247 15 208 0 163 0 c 256
 118 0 80 16 48 48 c 128
 16 80 0 119 0 165 c 0
 0 210 16 249 48 281 c 128
 80 313 119 329 165 329 c 2
 249 329 l 1
 249 369 l 2
 249 392 241 412 224 428 c 128
 207 444 187 453 164 453 c 128
 141 453 120 444 104 428 c 128
 88 412 80 392 80 369 c 1
 0 369 l 1
 0 415 16 454 48 486 c 128
 80 518 119 533 165 533 c 0
104 224 m 128
 88 207 80 187 80 164 c 128
 80 141 88 120 104 104 c 128
 120 88 141 80 164 80 c 128
 187 80 207 88 224 104 c 128
 241 120 249 141 249 165 c 2
 249 249 l 1
 159 249 l 2
 139 249 120 241 104 224 c 128
EndSplineSet
EndChar

StartChar: "+AOEA"
Encoding: 1073 1073 146
Width: 432
VWidth: 1365
Flags: HW
LayerCount: 2
Fore
SplineSet
242 800 m 1
 329 800 l 1
 322 773 304 746 278 720 c 128
 252 694 216 680 171 680 c 2
 165 680 l 2
 142 680 122 672 105 656 c 128
 88 640 80 619 80 595 c 2
 80 516 l 1
 106 527 138 533 176 533 c 128
 214 533 249 517 281 485 c 128
 313 453 329 414 329 369 c 2
 329 165 l 2
 329 119 313 80 281 48 c 128
 249 16 210 0 165 0 c 0
 119 0 80 16 48 48 c 128
 16 80 0 119 0 165 c 2
 0 595 l 2
 0 641 16 680 48 712 c 128
 80 744 119 760 165 760 c 2
 171 760 l 2
 194 760 212 766 222 776 c 128
 232 786 239 794 242 800 c 1
80 369 m 2
 80 165 l 2
 80 142 88 122 104 105 c 128
 120 88 141 80 164 80 c 128
 187 80 207 88 224 104 c 128
 241 120 249 141 249 165 c 2
 249 369 l 2
 249 392 241 412 224 428 c 128
 207 444 187 453 164 453 c 128
 141 453 120 444 104 428 c 128
 88 412 80 392 80 369 c 2
EndSplineSet
EndChar

StartChar: "+AOIA"
Encoding: 1074 1074 147
Width: 432
VWidth: 1365
Flags: HW
LayerCount: 2
Fore
SplineSet
165 800 m 0
 210 800 249 784 281 752 c 128
 313 720 329 681 329 635 c 0
 329 590 319 557 300 538 c 128
 281 519 268 507 261 502 c 1
 268 497 281 485 300 466 c 128
 319 447 329 414 329 369 c 2
 329 165 l 2
 329 119 313 80 281 48 c 128
 249 16 210 0 165 0 c 0
 119 0 80 16 48 48 c 128
 16 80 0 119 0 165 c 2
 0 635 l 2
 0 681 16 720 48 752 c 128
 80 784 119 800 165 800 c 0
104 696 m 128
 88 680 80 659 80 635 c 2
 80 510 l 1
 196 557 l 2
 207 562 218 570 230 582 c 128
 242 594 249 613 249 636 c 128
 249 659 241 680 224 696 c 128
 207 712 188 720 165 720 c 0
 141 720 120 712 104 696 c 128
104 430 m 128
 88 413 80 392 80 369 c 2
 80 165 l 2
 80 142 88 122 104 105 c 128
 120 88 141 80 165 80 c 0
 188 80 208 88 224 104 c 128
 240 120 249 141 249 165 c 2
 249 369 l 2
 249 392 241 413 224 430 c 128
 207 447 188 455 165 455 c 0
 141 455 120 447 104 430 c 128
EndSplineSet
EndChar

StartChar: "+AOMA"
Encoding: 1075 1075 148
Width: 432
VWidth: 1365
Flags: HW
HStem: 0 80<108.148 234.097> 453 80<126.319 202.6>
VStem: 0 80<108.124 221.182> 34 80<403 438.045> 215 80<362.224 441.14> 249 80<94.0195 165>
LayerCount: 2
Fore
SplineSet
165 533 m 0xd8
 200 533 230 520 256 495 c 0
 282 470 295 439 295 403 c 0xd8
 295 367 286 340 268 322 c 0
 250 304 234 293 221 286 c 2
 127 240 l 2
 118 236 108 228 97 216 c 0
 86 204 80 187 80 164 c 0
 80 141 88 120 104 104 c 0
 120 88 144 80 176 80 c 0
 208 80 228 88 236 104 c 0
 244 120 249 141 249 165 c 1
 329 165 l 1
 329 119 313 80 281 48 c 0
 249 16 210 0 165 0 c 0
 119 0 80 16 48 48 c 0
 16 80 0 119 0 165 c 0xe4
 0 210 12 244 34 266 c 0
 56 288 75 304 92 312 c 2
 187 358 l 2
 192 361 197 365 204 372 c 0
 211 379 215 390 215 404 c 0
 215 418 210 428 200 438 c 0
 190 448 178 453 164 453 c 0
 150 453 138 448 128 438 c 0
 118 428 114 417 114 403 c 1
 34 403 l 1
 34 439 46 470 72 495 c 0
 98 520 129 533 165 533 c 0xd8
EndSplineSet
EndChar

StartChar: "+AOQA"
Encoding: 1076 1076 149
Width: 432
VWidth: 1365
Flags: HW
LayerCount: 2
Fore
SplineSet
80 369 m 2
 80 165 l 2
 80 142 88 122 104 105 c 128
 120 88 141 80 164 80 c 128
 187 80 207 88 224 104 c 128
 241 120 249 141 249 165 c 2
 249 369 l 2
 249 392 241 412 224 428 c 128
 207 444 187 453 164 453 c 128
 141 453 120 444 104 428 c 128
 88 412 80 392 80 369 c 2
48 752 m 1
 80 784 119 800 164 800 c 0
 210 800 249 784 281 752 c 128
 313 720 329 681 329 635 c 2
 329 165 l 2
 329 119 313 80 281 48 c 128
 249 16 210 0 164 0 c 0
 119 0 80 16 48 48 c 128
 16 80 0 119 0 165 c 2
 0 369 l 2
 0 415 16 454 48 486 c 128
 80 518 115 533 153 533 c 128
 191 533 223 527 249 516 c 1
 249 635 l 2
 249 658 241 678 224 695 c 128
 207 712 187 720 164 720 c 128
 141 720 121 712 105 695 c 1
 48 752 l 1
EndSplineSet
EndChar

StartChar: "+AOUA"
Encoding: 1077 1077 150
Width: 432
VWidth: 1365
Flags: HW
LayerCount: 2
Fore
SplineSet
80 165 m 2
 80 142 88 122 104 105 c 128
 120 88 141 80 164 80 c 128
 187 80 207 88 224 104 c 128
 241 120 249 141 249 165 c 1
 329 165 l 1
 329 119 313 80 281 48 c 128
 249 16 210 0 164 0 c 0
 119 0 80 16 48 48 c 128
 16 80 0 119 0 165 c 2
 0 369 l 2
 0 415 16 454 48 486 c 128
 80 518 119 533 164 533 c 0
 210 533 249 517 281 485 c 128
 313 453 329 414 329 369 c 2
 329 227 l 1
 80 227 l 1
 80 165 l 2
249 369 m 2
 249 392 241 412 224 428 c 128
 207 444 187 453 164 453 c 128
 141 453 120 444 104 428 c 128
 88 412 80 392 80 369 c 2
 80 307 l 1
 249 307 l 1
 249 369 l 2
EndSplineSet
EndChar

StartChar: "+AOYA"
Encoding: 1078 1078 151
Width: 592
VWidth: 1365
Flags: HW
LayerCount: 2
Fore
SplineSet
0 533 m 1
 92 533 l 1
 197 347 l 1
 205 347 l 1
 205 533 l 1
 285 533 l 1
 285 347 l 1
 291 347 l 1
 397 533 l 1
 489 533 l 1
 361 307 l 1
 489 0 l 1
 402 0 l 1
 291 267 l 1
 285 267 l 1
 285 0 l 1
 205 0 l 1
 205 267 l 1
 198 267 l 1
 87 0 l 1
 0 0 l 1
 128 307 l 1
 0 533 l 1
EndSplineSet
EndChar

StartChar: "+AOcA"
Encoding: 1079 1079 152
Width: 432
VWidth: 1365
Flags: HW
LayerCount: 2
Fore
SplineSet
165 329 m 2
 182 329 196 335 208 347 c 128
 220 359 227 374 227 391 c 0
 227 409 221 424 209 436 c 128
 197 448 182 453 165 453 c 256
 148 453 132 447 120 435 c 128
 108 423 102 408 102 391 c 1
 23 391 l 1
 23 430 37 464 64 492 c 128
 91 520 125 533 165 533 c 256
 204 533 238 520 266 492 c 128
 294 464 307 430 307 391 c 0
 307 353 294 320 268 293 c 1
 273 290 277 286 281 281 c 0
 312 249 328 210 329 165 c 0
 329 119 313 80 281 48 c 128
 249 16 210 0 165 0 c 0
 119 0 80 16 48 48 c 128
 16 80 0 119 0 165 c 1
 79 165 l 1
 79 142 87 122 104 105 c 128
 121 88 141 80 165 80 c 0
 188 80 208 88 224 104 c 128
 240 120 248 141 248 165 c 256
 248 188 240 208 224 224 c 128
 208 240 188 249 165 249 c 2
 125 249 l 1
 125 329 l 1
 165 329 l 2
EndSplineSet
EndChar

StartChar: "+AOgA"
Encoding: 1080 1080 153
Width: 451
VWidth: 1365
Flags: HW
LayerCount: 2
Fore
SplineSet
297 34 m 0
 292 39 287 45 283 50 c 1
 282 49 282 49 281 48 c 0
 249 16 210 0 164 0 c 0
 119 0 80 16 48 48 c 128
 16 80 0 119 0 165 c 2
 0 533 l 1
 80 533 l 1
 80 165 l 2
 80 142 88 122 104 105 c 128
 120 88 141 80 164 80 c 128
 187 80 207 88 224 104 c 128
 241 120 249 141 249 165 c 2
 249 533 l 1
 329 533 l 1
 329 151 l 2
 329 130 335 112 347 97 c 1
 347 0 l 1
 329 7 312 19 297 34 c 0
EndSplineSet
EndChar

StartChar: "+AOkA"
Encoding: 1081 1081 154
Width: 451
VWidth: 1365
Flags: HW
LayerCount: 2
Fore
SplineSet
297 34 m 0
 292 39 287 45 283 50 c 1
 282 49 282 49 281 48 c 0
 249 16 210 0 164 0 c 0
 119 0 80 16 48 48 c 128
 16 80 0 119 0 165 c 2
 0 533 l 1
 80 533 l 1
 80 165 l 2
 80 142 88 122 104 105 c 128
 120 88 141 80 164 80 c 128
 187 80 207 88 224 104 c 128
 241 120 249 141 249 165 c 2
 249 533 l 1
 329 533 l 1
 329 151 l 2
 329 130 335 112 347 97 c 1
 347 0 l 1
 329 7 312 19 297 34 c 0
120 613 m 1
 120 693 l 1
 209 693 l 1
 209 613 l 1
 120 613 l 1
EndSplineSet
EndChar

StartChar: "+AOoA"
Encoding: 1082 1082 155
Width: 432
VWidth: 1365
Flags: HW
HStem: 0 21G<0 80 239.336 329> 513 20G<0 80 219.638 329>
VStem: 0 80<0 160 304 533>
LayerCount: 2
Fore
SplineSet
80 533 m 1
 80 304 l 1
 233 533 l 1
 329 533 l 1
 222 373 l 1
 329 0 l 1
 245 0 l 1
 164 286 l 1
 80 160 l 1
 80 0 l 1
 0 0 l 1
 0 533 l 1
 80 533 l 1
EndSplineSet
EndChar

StartChar: "+AOsA"
Encoding: 1083 1083 156
Width: 432
VWidth: 1365
Flags: HW
LayerCount: 2
Fore
SplineSet
201 533 m 2
 329 533 l 1
 329 0 l 1
 249 0 l 1
 249 453 l 1
 201 453 l 2
 186 453 173 448 162 437 c 128
 151 426 145 413 145 397 c 2
 145 136 l 2
 145 98 132 66 105 40 c 128
 78 14 46 0 9 0 c 2
 0 0 l 1
 0 80 l 1
 9 80 l 2
 24 80 37 85 48 96 c 128
 59 107 65 121 65 136 c 2
 65 397 l 2
 65 435 78 468 104 494 c 128
 130 520 163 533 201 533 c 2
EndSplineSet
EndChar

StartChar: "+AOwA"
Encoding: 1084 1084 157
Width: 592
VWidth: 1365
Flags: HW
LayerCount: 2
Fore
SplineSet
92 533 m 1
 245 267 l 1
 397 533 l 1
 489 533 l 1
 489 0 l 1
 409 0 l 1
 409 379 l 1
 245 105 l 1
 80 379 l 1
 80 0 l 1
 0 0 l 1
 0 533 l 1
 92 533 l 1
EndSplineSet
EndChar

StartChar: "+AO0A"
Encoding: 1085 1085 158
Width: 431
VWidth: 1365
Flags: HW
LayerCount: 2
Fore
SplineSet
80 267 m 1
 80 0 l 1
 0 0 l 1
 0 533 l 1
 80 533 l 1
 80 347 l 1
 248 347 l 1
 248 533 l 1
 328 533 l 1
 328 0 l 1
 248 0 l 1
 248 267 l 1
 80 267 l 1
EndSplineSet
EndChar

StartChar: "+AO4A"
Encoding: 1086 1086 159
Width: 432
VWidth: 1365
Flags: HW
LayerCount: 2
Fore
SplineSet
80 165 m 2
 80 142 88 122 104 105 c 128
 120 88 141 80 164 80 c 128
 187 80 207 88 224 104 c 128
 241 120 249 141 249 165 c 2
 249 369 l 2
 249 392 241 412 224 428 c 128
 207 444 187 453 164 453 c 128
 141 453 120 444 104 428 c 128
 88 412 80 392 80 369 c 2
 80 165 l 2
329 165 m 2
 329 119 313 80 281 48 c 128
 249 16 210 0 164 0 c 0
 119 0 80 16 48 48 c 128
 16 80 0 119 0 165 c 2
 0 369 l 2
 0 415 16 454 48 486 c 128
 80 518 119 533 164 533 c 0
 210 533 249 517 281 485 c 128
 313 453 329 414 329 369 c 2
 329 165 l 2
EndSplineSet
EndChar

StartChar: "+AO8A"
Encoding: 1087 1087 160
Width: 451
VWidth: 1365
Flags: HW
HStem: 0 21G<19 99 267 347> 453 80<126.966 239.034>
VStem: 19 80<0 425.193> 267 80<0 424.672>
LayerCount: 2
Fore
SplineSet
51 499 m 0
 56 494 61 488 65 483 c 1
 66 484 66 484 67 485 c 0
 99 517 138 533 183 533 c 0
 228 533 267 517 299 485 c 0
 331 453 347 414 347 369 c 2
 347 0 l 1
 267 0 l 1
 267 369 l 2
 267 392 258 412 242 428 c 0
 226 444 206 453 183 453 c 0
 160 453 140 444 124 428 c 0
 108 412 99 392 99 369 c 2
 99 0 l 1
 19 0 l 1
 19 383 l 2
 19 404 13 421 0 436 c 1
 0 533 l 1
 19 526 36 514 51 499 c 0
EndSplineSet
EndChar

StartChar: "+APAA"
Encoding: 1088 1088 161
Width: 432
VWidth: 1365
Flags: HW
LayerCount: 2
Fore
SplineSet
165 80 m 2
 188 80 208 88 224 105 c 256
 241 122 249 142 249 165 c 2
 249 369 l 2
 249 392 241 412 224 429 c 256
 207 446 188 454 165 453 c 2
 80 453 l 1
 80 80 l 1
 165 80 l 2
165 533 m 2
 210 533 249 517 281 485 c 128
 313 453 329 414 329 369 c 2
 329 165 l 2
 329 119 313 80 281 48 c 128
 249 16 210 0 165 0 c 2
 80 0 l 1
 80 -267 l 1
 0 -267 l 1
 0 533 l 1
 165 533 l 2
EndSplineSet
EndChar

StartChar: "+APEA"
Encoding: 1089 1089 162
Width: 432
VWidth: 1365
Flags: HW
LayerCount: 2
Fore
SplineSet
80 165 m 2
 80 142 88 122 104 105 c 128
 120 88 141 80 164 80 c 128
 187 80 207 88 224 104 c 128
 241 120 249 141 249 165 c 1
 329 165 l 1
 329 119 313 80 281 48 c 128
 249 16 210 0 164 0 c 0
 119 0 80 16 48 48 c 128
 16 80 0 119 0 165 c 2
 0 369 l 2
 0 415 16 454 48 486 c 128
 80 518 119 533 164 533 c 0
 210 533 249 517 281 485 c 128
 313 453 329 414 329 369 c 1
 249 369 l 1
 249 392 241 412 224 428 c 128
 207 444 187 453 164 453 c 128
 141 453 120 444 104 428 c 128
 88 412 80 392 80 369 c 2
 80 165 l 2
EndSplineSet
EndChar

StartChar: "+APIA"
Encoding: 1090 1090 163
Width: 592
VWidth: 1365
Flags: HW
HStem: 0 21G<25 105 217 297 409 489> 453 80<119.396 202.162 311.064 394.204>
VStem: 0 66<495 513.887> 25 80<0 436.498> 217 80<0 435.983> 409 80<0 435.983>
LayerCount: 2
Fore
SplineSet
489 397 m 2xec
 489 0 l 1
 409 0 l 1
 409 397 l 2
 409 412 403 425 392 436 c 0
 381 447 368 453 353 453 c 0
 338 453 325 448 314 437 c 0
 303 426 297 413 297 397 c 2
 297 0 l 1
 217 0 l 1
 217 397 l 2
 217 412 211 425 200 436 c 0
 189 447 176 453 161 453 c 0
 146 453 133 448 122 437 c 0
 111 426 105 413 105 397 c 2
 105 0 l 1
 25 0 l 1
 25 401 l 2xdc
 25 416 19 429 8 440 c 0
 6 443 3 445 0 447 c 1
 0 533 l 1
 25 528 46 516 65 497 c 0
 66 496 66 496 66 495 c 0
 92 520 124 533 161 533 c 0
 199 533 231 520 257 494 c 1
 283 520 315 533 353 533 c 256
 391 533 424 520 450 494 c 0
 476 468 489 435 489 397 c 2xec
EndSplineSet
EndChar

StartChar: "+APMA"
Encoding: 1091 1091 164
Width: 432
VWidth: 1365
Flags: HW
LayerCount: 2
Fore
SplineSet
123 -1 m 1
 0 533 l 1
 82 533 l 1
 165 167 l 1
 247 533 l 1
 329 533 l 1
 175 -152 l 1
 170 -181 158 -206 137 -227 c 0
 110 -254 78 -267 40 -267 c 1
 40 -187 l 1
 55 -187 68 -181 79 -170 c 0
 87 -162 92 -153 95 -143 c 2
 123 -1 l 1
EndSplineSet
EndChar

StartChar: "+APQA"
Encoding: 1092 1092 165
Width: 592
VWidth: 1365
Flags: HW
LayerCount: 2
Fore
SplineSet
285 89 m 1
 297 83 310 80 325 80 c 0
 348 80 368 88 384 104 c 128
 400 120 409 141 409 165 c 2
 409 289 l 2
 409 312 401 332 384 348 c 128
 367 364 348 373 325 373 c 0
 310 373 297 370 285 364 c 1
 285 89 l 1
205 363 m 1
 193 370 180 373 165 373 c 0
 142 373 122 364 105 348 c 128
 88 332 80 312 80 289 c 2
 80 165 l 2
 80 142 88 122 104 105 c 128
 120 88 141 80 165 80 c 0
 180 80 193 83 205 90 c 1
 205 363 l 1
205 5 m 1
 192 2 179 0 164 0 c 0
 119 0 80 16 48 48 c 128
 16 80 0 119 0 165 c 2
 0 289 l 2
 0 335 16 374 48 406 c 128
 80 438 119 453 164 453 c 0
 178 453 192 452 205 449 c 1
 205 533 l 1
 285 533 l 1
 285 449 l 1
 298 452 311 454 325 453 c 0
 370 453 409 437 441 405 c 128
 473 373 489 334 489 289 c 2
 489 165 l 2
 489 119 473 80 441 48 c 128
 409 16 370 0 325 0 c 0
 311 0 298 2 285 5 c 1
 285 -267 l 1
 205 -267 l 1
 205 5 l 1
EndSplineSet
EndChar

StartChar: "+APUA"
Encoding: 1093 1093 166
Width: 432
VWidth: 1365
Flags: HW
LayerCount: 2
Fore
SplineSet
88 533 m 1
 165 364 l 1
 241 533 l 1
 329 533 l 1
 208 267 l 1
 329 0 l 1
 241 0 l 1
 165 169 l 1
 88 0 l 1
 0 0 l 1
 116 267 l 1
 0 533 l 1
 88 533 l 1
EndSplineSet
EndChar

StartChar: "+APYA"
Encoding: 1094 1094 167
Width: 512
VWidth: 1365
Flags: HW
LayerCount: 2
Fore
SplineSet
289 17 m 0
 315 -10 328 -42 328 -79 c 1
 409 -80 l 1
 409 -20 388 31 346 73 c 0
 336 83 326 92 316 99 c 1
 325 120 329 142 329 165 c 2
 329 533 l 1
 249 533 l 1
 249 165 l 2
 249 142 241 122 224 105 c 128
 207 88 187 80 164 80 c 128
 141 80 120 88 104 104 c 128
 88 120 80 141 80 165 c 2
 80 533 l 1
 0 533 l 1
 0 165 l 2
 0 119 16 80 48 48 c 128
 80 16 119 0 164 0 c 0
 203 0 238 12 267 35 c 1
 274 30 282 24 289 17 c 0
EndSplineSet
EndChar

StartChar: "+APcA"
Encoding: 1095 1095 168
Width: 432
VWidth: 1365
Flags: HW
LayerCount: 2
Fore
SplineSet
80 533 m 1
 80 351 l 2
 80 328 88 308 105 291 c 256
 122 274 141 266 164 267 c 2
 249 267 l 1
 249 533 l 1
 329 533 l 1
 329 0 l 1
 249 0 l 1
 249 187 l 1
 164 187 l 2
 119 187 80 203 48 235 c 128
 16 267 0 306 0 351 c 2
 0 533 l 1
 80 533 l 1
EndSplineSet
EndChar

StartChar: "+APgA"
Encoding: 1096 1096 169
Width: 592
VWidth: 1365
Flags: HW
LayerCount: 2
Fore
SplineSet
0 136 m 2
 0 533 l 1
 80 533 l 1
 80 136 l 2
 80 121 85 107 96 96 c 128
 107 85 121 80 136 80 c 0
 151 80 165 85 176 96 c 128
 187 107 192 121 192 136 c 2
 192 533 l 1
 272 533 l 1
 272 136 l 2
 272 121 277 107 288 96 c 128
 299 85 313 80 328 80 c 0
 343 80 357 85 368 96 c 128
 379 107 384 121 384 136 c 2
 384 533 l 1
 464 533 l 1
 464 133 l 2
 464 118 470 104 481 93 c 0
 483 90 486 88 489 86 c 1
 489 0 l 1
 464 5 443 18 424 37 c 0
 423 38 l 0
 397 13 365 0 328 0 c 0
 290 0 258 13 232 39 c 1
 206 13 174 0 136 0 c 256
 98 0 66 14 40 40 c 128
 14 66 0 98 0 136 c 2
EndSplineSet
EndChar

StartChar: "+APkA"
Encoding: 1097 1097 170
Width: 672
VWidth: 1365
Flags: HW
LayerCount: 2
Fore
SplineSet
0 136 m 2
 0 533 l 1
 80 533 l 1
 80 136 l 2
 80 121 85 107 96 96 c 128
 107 85 121 80 136 80 c 0
 151 80 165 85 176 96 c 128
 187 107 192 121 192 136 c 2
 192 533 l 1
 272 533 l 1
 272 136 l 2
 272 121 277 107 288 96 c 128
 299 85 313 80 328 80 c 256
 343 80 357 85 368 96 c 128
 379 107 384 121 384 136 c 2
 384 533 l 1
 464 533 l 1
 464 136 l 2
 464 126 463 117 461 108 c 1
 477 99 492 87 506 73 c 0
 548 31 569 -20 569 -80 c 1
 488 -80 l 1
 488 -42 475 -10 449 17 c 0
 441 25 432 32 423 38 c 1
 397 13 365 0 328 0 c 0
 290 0 258 13 232 39 c 1
 206 13 174 0 136 0 c 256
 98 0 66 14 40 40 c 128
 14 66 0 98 0 136 c 2
EndSplineSet
EndChar

StartChar: "+APoA"
Encoding: 1098 1098 171
Width: 512
VWidth: 1365
Flags: HW
LayerCount: 2
Fore
SplineSet
160 267 m 1
 160 80 l 1
 245 80 l 2
 268 80 288 88 304 105 c 256
 321 122 329 142 329 165 c 2
 329 182 l 2
 329 205 321 225 304 242 c 256
 287 259 268 267 245 267 c 2
 160 267 l 1
160 347 m 1
 245 347 l 2
 290 347 329 331 361 299 c 128
 393 267 409 228 409 182 c 2
 409 165 l 2
 409 119 393 80 361 48 c 128
 329 16 290 0 245 0 c 2
 80 0 l 1
 80 453 l 1
 0 453 l 1
 0 533 l 1
 160 533 l 1
 160 347 l 1
EndSplineSet
EndChar

StartChar: "+APsA"
Encoding: 1099 1099 172
Width: 592
VWidth: 1365
Flags: HW
LayerCount: 2
Fore
SplineSet
80 267 m 1
 80 80 l 1
 165 80 l 2
 188 80 208 88 224 105 c 256
 241 122 249 142 249 165 c 2
 249 182 l 2
 249 205 241 225 224 242 c 256
 207 259 188 267 165 267 c 2
 80 267 l 1
0 0 m 1
 0 533 l 1
 80 533 l 1
 80 347 l 1
 165 347 l 2
 210 347 249 331 281 299 c 128
 313 267 329 228 329 182 c 2
 329 165 l 2
 329 119 313 80 281 48 c 128
 249 16 210 0 165 0 c 2
 0 0 l 1
409 0 m 1
 409 533 l 1
 489 533 l 1
 489 0 l 1
 409 0 l 1
EndSplineSet
EndChar

StartChar: "+APwA"
Encoding: 1100 1100 173
Width: 432
VWidth: 1365
Flags: HW
LayerCount: 2
Fore
SplineSet
80 267 m 1
 80 80 l 1
 165 80 l 2
 188 80 208 88 224 105 c 256
 241 122 249 142 249 165 c 2
 249 182 l 2
 249 205 241 225 224 242 c 256
 207 259 188 267 165 267 c 2
 80 267 l 1
0 0 m 1
 0 533 l 1
 80 533 l 1
 80 347 l 1
 165 347 l 2
 210 347 249 331 281 299 c 128
 313 267 329 228 329 182 c 2
 329 165 l 2
 329 119 313 80 281 48 c 128
 249 16 210 0 165 0 c 2
 0 0 l 1
EndSplineSet
EndChar

StartChar: "+AP0A"
Encoding: 1101 1101 174
Width: 432
VWidth: 1365
Flags: HW
LayerCount: 2
Fore
SplineSet
249 307 m 1
 249 369 l 2
 249 392 241 412 224 428 c 128
 207 444 187 453 164 453 c 128
 141 453 120 444 104 428 c 128
 88 412 80 392 80 369 c 1
 0 369 l 1
 0 415 16 454 48 486 c 128
 80 518 119 533 165 533 c 0
 210 533 249 517 281 485 c 128
 313 453 329 414 329 369 c 2
 329 165 l 2
 329 119 313 80 281 48 c 128
 249 16 210 0 165 0 c 0
 119 0 80 16 48 48 c 128
 16 80 0 119 0 165 c 1
 80 165 l 1
 80 142 88 122 104 105 c 128
 120 88 141 80 164 80 c 128
 187 80 207 88 224 104 c 128
 241 120 249 141 249 165 c 2
 249 227 l 1
 125 227 l 1
 125 307 l 1
 249 307 l 1
EndSplineSet
EndChar

StartChar: "+AP4A"
Encoding: 1102 1102 175
Width: 592
VWidth: 1365
Flags: HW
LayerCount: 2
Fore
SplineSet
240 165 m 2
 240 142 248 122 264 105 c 128
 280 88 301 80 324 80 c 128
 347 80 367 88 384 104 c 128
 401 120 409 141 409 165 c 2
 409 369 l 2
 409 392 401 412 384 428 c 128
 367 444 347 453 324 453 c 128
 301 453 280 444 264 428 c 128
 248 412 240 392 240 369 c 2
 240 165 l 2
160 347 m 1
 160 369 l 2
 160 415 176 454 208 486 c 128
 240 518 279 533 324 533 c 0
 370 533 409 517 441 485 c 128
 473 453 489 414 489 369 c 2
 489 165 l 2
 489 119 473 80 441 48 c 128
 409 16 370 0 324 0 c 0
 279 0 240 16 208 48 c 128
 176 80 160 119 160 165 c 2
 160 267 l 1
 80 267 l 1
 80 0 l 1
 0 0 l 1
 0 533 l 1
 80 533 l 1
 80 347 l 1
 160 347 l 1
EndSplineSet
EndChar

StartChar: "+AP8A"
Encoding: 1103 1103 176
Width: 432
VWidth: 1365
Flags: HW
LayerCount: 2
Fore
SplineSet
249 267 m 1
 249 453 l 1
 164 453 l 2
 141 453 121 445 105 429 c 256
 88 412 80 392 80 369 c 2
 80 351 l 2
 80 328 88 308 105 291 c 256
 122 274 141 266 164 267 c 2
 249 267 l 1
95 201 m 1
 78 209 63 220 48 235 c 0
 16 267 0 306 0 351 c 2
 0 369 l 2
 0 415 16 454 48 486 c 128
 80 518 119 533 164 533 c 2
 329 533 l 1
 329 0 l 1
 249 0 l 1
 249 187 l 1
 176 187 l 1
 89 0 l 1
 0 0 l 1
 95 201 l 1
EndSplineSet
EndChar

StartChar: "+ALgA"
Encoding: 1105 1105 177
Width: 432
VWidth: 1365
Flags: HW
LayerCount: 2
Fore
SplineSet
80 165 m 2
 80 142 88 122 104 105 c 128
 120 88 141 80 164 80 c 128
 187 80 207 88 224 104 c 128
 241 120 249 141 249 165 c 1
 329 165 l 1
 329 119 313 80 281 48 c 128
 249 16 210 0 164 0 c 0
 119 0 80 16 48 48 c 128
 16 80 0 119 0 165 c 2
 0 369 l 2
 0 415 16 454 48 486 c 128
 80 518 119 533 164 533 c 0
 210 533 249 517 281 485 c 128
 313 453 329 414 329 369 c 2
 329 227 l 1
 80 227 l 1
 80 165 l 2
249 369 m 2
 249 392 241 412 224 428 c 128
 207 444 187 453 164 453 c 128
 141 453 120 444 104 428 c 128
 88 412 80 392 80 369 c 2
 80 307 l 1
 249 307 l 1
 249 369 l 2
EndSplineSet
EndChar
